<?xml version="1.0" encoding="utf-8"?>
<!-- Generator: Adobe Illustrator 16.0.4, SVG Export Plug-In . SVG Version: 6.00 Build 0)  -->
<!DOCTYPE svg PUBLIC "-//W3C//DTD SVG 1.1//EN" "http://www.w3.org/Graphics/SVG/1.1/DTD/svg11.dtd">
<svg version="1.1" id="Layer_1" xmlns="http://www.w3.org/2000/svg" xmlns:xlink="http://www.w3.org/1999/xlink" x="0px" y="0px"
	 width="969.719px" height="292.928px" viewBox="-147.627 -97.146 969.719 292.928"
	 enable-background="new -147.627 -97.146 969.719 292.928" xml:space="preserve">
<g>
	<g>
		<path fill="#88DBDF" d="M44.432,48.235c-32.041,0-45.521,22.228-45.804,22.705c-0.005,0.008-0.021,0.031-0.021,0.031V48.228
			V35.146V9.419V9.412c0.005,0.007,0.015,0.015,0.015,0.015c3.385,4.384,7.301,8.327,11.654,11.733
			c0.014,0.02,0.027,0.03,0.05,0.043c1.425,1.118,2.908,2.18,4.43,3.177c0.137,0.091,0.282,0.181,0.419,0.268
			c0.797,0.511,1.597,1.008,2.408,1.487c0.304,0.175,0.609,0.355,0.929,0.529c0.581,0.333,1.182,0.657,1.784,0.971
			c0.442,0.236,0.884,0.465,1.333,0.691c0.379,0.181,0.749,0.369,1.125,0.543c0.674,0.318,1.357,0.627,2.052,0.924
			c0.318,0.146,0.645,0.275,0.972,0.407c0.659,0.275,1.32,0.541,1.995,0.786c0.31,0.118,0.616,0.226,0.92,0.338
			c0.682,0.243,1.362,0.476,2.045,0.692c0.269,0.088,0.534,0.175,0.797,0.259c0.813,0.246,1.625,0.475,2.436,0.685
			c0.291,0.083,0.581,0.156,0.87,0.228c0.829,0.207,1.655,0.398,2.489,0.573c0.27,0.058,0.544,0.104,0.826,0.159
			c0.684,0.135,1.372,0.254,2.054,0.368c0.362,0.057,0.709,0.119,1.059,0.17c0.731,0.1,1.462,0.194,2.198,0.278
			c0.405,0.04,0.804,0.092,1.21,0.124c0.739,0.073,1.494,0.124,2.235,0.174c0.505,0.03,1.011,0.044,1.522,0.062
			c0.354,0.018,0.71,0.026,1.072,0.029c0.437,0.011,0.856,0.021,1.292,0.021c18.172,0,34.62-7.364,46.557-19.243L88.11,6.664
			c-7.172,7.125-16.383,12.217-26.659,14.312c-0.515,0.101-1.038,0.184-1.553,0.276c-0.326,0.057-0.659,0.126-0.995,0.177
			c-2.639,0.407-5.35,0.625-8.105,0.625C24.366,22.053,2.53,2.635-1.392-22.7v-0.315v-15.592v-0.352
			C2.53-64.297,24.366-83.706,50.8-83.706c14.626,0,27.871,5.942,37.448,15.54l9.255-9.25C87.443-87.503,74.13-94.331,59.27-96.238
			c-2.75-0.351-5.54-0.551-8.384-0.551c-14.793,0-28.456,4.874-39.465,13.097c-0.014,0.011-0.029,0.021-0.037,0.029
			c-1.618,1.211-3.167,2.491-4.663,3.84c-0.109,0.102-0.217,0.2-0.332,0.302c-0.668,0.612-1.327,1.243-1.981,1.889
			c-0.137,0.135-0.268,0.268-0.398,0.406c-0.653,0.649-1.284,1.309-1.901,1.988c-0.072,0.083-0.144,0.169-0.216,0.25
			c-0.602,0.659-1.183,1.335-1.748,2.016c-0.081,0.095-0.167,0.188-0.24,0.284c-0.436,0.533-0.864,1.08-1.276,1.628v-0.027
			c-0.015,0.008-0.015,0.011-0.021,0.02V-96.8v-0.344h-14.134v0.344v26.735v0.007v32.975c0,0.01,0,0.017,0,0.025v12.89
			c0,0.008,0,0.018,0,0.03V8.31v0.005v26.831v13.082v27.078v32.984c0,0.014,0,0.021,0,0.027v12.889c0,0.006,0,0.02,0,0.027v32.453
			v26.804v0.377h13.792v-0.377v-72.324c0-0.906,0.101-2.283,0.362-3.98C0.47,91.77,10.151,61.659,44.084,61.659
			c38.581,0,46.849,38.588,46.849,50.641v68.189v0.377h13.088v-0.377v-65.08C104.021,75.786,76.806,48.235,44.432,48.235z"/>
		<path fill="#FFFFFF" d="M-29.138-97.145v26.998c-1.459-2.007-3.001-3.983-4.724-5.879c-11.399-12.55-25.474-19.465-42.19-20.774
			c-1.95-0.156-3.927-0.253-5.951-0.253c-2.023,0-4.004,0.097-5.954,0.253c-16.798,1.313-30.899,8.267-42.311,20.882
			C-141.8-63.17-147.574-48.135-147.622-30.81c0,0.064-0.005,0.129-0.005,0.188c0,0.062,0.005,0.115,0.005,0.178
			c0.048,17.48,6.163,32.768,18.347,45.856c12.228,13.134,27.978,19.7,47.272,19.7c19.21,0,34.931-6.566,47.165-19.7
			c2.101-2.263,3.958-4.619,5.697-7.017v26.749v13.082v26.992c-1.456-2-2.997-3.973-4.72-5.859
			c-12.726-14.025-28.774-21.031-48.14-21.031c-19.443,0-35.524,7.05-48.264,21.132c-11.529,12.74-17.307,27.775-17.353,45.107
			c0,0.059-0.004,0.115-0.004,0.189c0,0.057,0.004,0.115,0.004,0.172c0.046,17.479,6.161,32.779,18.346,45.861
			c12.228,13.127,27.977,19.697,47.271,19.697c19.213,0,34.929-6.57,47.17-19.697c2.099-2.262,3.956-4.631,5.694-7.025v27.101
			h13.974v-278.01L-29.138-97.145L-29.138-97.145z M-81.556,22.31c-29.232,0-52.926-23.691-52.926-52.924
			c0-29.229,23.693-52.918,52.926-52.918c26.898,0,49.051,20.081,52.418,46.065v13.712C-32.505,2.229-54.658,22.31-81.556,22.31z
			 M-81.549,167.68c-29.238,0-52.928-23.688-52.928-52.922c0-29.233,23.69-52.916,52.928-52.916c26.9,0,49.044,20.07,52.411,46.064
			v13.711C-32.505,147.6-54.649,167.68-81.549,167.68z"/>
	</g>
	<g>
		<path fill="#FFFFFF" d="M179.477-78.837v43.562h-5.525v-7.487c-2.349,2.856-4.985,5.005-7.908,6.446s-6.12,2.162-9.589,2.162
			c-6.166,0-11.431-2.235-15.795-6.707c-4.364-4.47-6.546-9.909-6.546-16.315c0-6.272,2.202-11.638,6.606-16.096
			c4.404-4.458,9.703-6.687,15.896-6.687c3.577,0,6.813,0.761,9.709,2.282c2.896,1.521,5.438,3.804,7.627,6.847v-8.008
			L179.477-78.837L179.477-78.837z M157.075-74.553c-3.119,0-5.999,0.767-8.638,2.3c-2.64,1.533-4.74,3.687-6.299,6.459
			c-1.56,2.773-2.339,5.706-2.339,8.799c0,3.066,0.787,5.999,2.359,8.798c1.573,2.8,3.686,4.979,6.338,6.539
			c2.653,1.561,5.499,2.34,8.539,2.34c3.066,0,5.972-0.773,8.718-2.319c2.746-1.547,4.859-3.64,6.339-6.279
			c1.479-2.64,2.22-5.612,2.22-8.918c0-5.039-1.66-9.252-4.979-12.639C166.013-72.86,161.927-74.553,157.075-74.553z"/>
		<path fill="#FFFFFF" d="M189.663-78.837h5.605v20.34c0,4.965,0.267,8.382,0.802,10.25c0.802,2.67,2.332,4.778,4.591,6.326
			c2.258,1.549,4.952,2.322,8.08,2.322c3.127,0,5.781-0.754,7.959-2.262c2.178-1.508,3.683-3.49,4.511-5.946
			c0.562-1.682,0.842-5.245,0.842-10.69v-20.34h5.726v21.381c0,6.006-0.701,10.53-2.102,13.573c-1.401,3.043-3.51,5.425-6.326,7.147
			c-2.816,1.721-6.346,2.582-10.59,2.582c-4.244,0-7.788-0.861-10.63-2.582c-2.843-1.723-4.965-4.125-6.366-7.207
			c-1.401-3.084-2.102-7.721-2.102-13.914V-78.837L189.663-78.837z"/>
		<path fill="#FFFFFF" d="M259.821-74.073l-3.604,3.724c-2.998-2.909-5.928-4.364-8.791-4.364c-1.821,0-3.379,0.601-4.677,1.802
			c-1.298,1.201-1.947,2.603-1.947,4.204c0,1.415,0.535,2.763,1.604,4.044c1.07,1.309,3.317,2.843,6.741,4.604
			c4.173,2.162,7.008,4.244,8.506,6.246c1.471,2.029,2.207,4.312,2.207,6.847c0,3.577-1.257,6.606-3.77,9.089
			c-2.513,2.483-5.654,3.724-9.423,3.724c-2.514,0-4.913-0.548-7.198-1.642c-2.286-1.094-4.177-2.603-5.674-4.524l3.523-4.004
			c2.863,3.23,5.899,4.845,9.11,4.845c2.247,0,4.16-0.721,5.738-2.162s2.368-3.136,2.368-5.085c0-1.602-0.522-3.029-1.564-4.284
			c-1.044-1.228-3.398-2.775-7.062-4.645c-3.933-2.028-6.608-4.03-8.025-6.006c-1.417-1.975-2.126-4.23-2.126-6.767
			c0-3.31,1.129-6.059,3.389-8.248c2.259-2.188,5.113-3.283,8.562-3.283C251.719-79.958,255.757-77.997,259.821-74.073z"/>
		<path fill="#FFFFFF" d="M272.947-95.013h5.605v16.176h8.889v4.845h-8.889v38.718h-5.605v-38.718H265.3v-4.845h7.647V-95.013z"/>
		<path fill="#FFFFFF" d="M292.505-78.837h5.726v6.366c1.708-2.509,3.51-4.384,5.405-5.625c1.895-1.241,3.87-1.862,5.926-1.862
			c1.548,0,3.202,0.494,4.965,1.481l-2.924,4.725c-1.175-0.507-2.161-0.761-2.963-0.761c-1.868,0-3.67,0.768-5.405,2.302
			c-1.735,1.535-3.057,3.917-3.964,7.147c-0.694,2.482-1.041,7.501-1.041,15.055v14.734h-5.726V-78.837z"/>
		<path fill="#FFFFFF" d="M321.323-96.775c1.275,0,2.366,0.454,3.27,1.361c0.903,0.908,1.355,2.002,1.355,3.283
			c0,1.255-0.452,2.336-1.355,3.243c-0.902,0.908-1.993,1.361-3.27,1.361c-1.249,0-2.325-0.454-3.229-1.361
			c-0.902-0.907-1.354-1.988-1.354-3.243c0-1.281,0.452-2.375,1.354-3.283C318.998-96.321,320.074-96.775,321.323-96.775z
			 M318.541-78.837h5.605v43.562h-5.605V-78.837z"/>
		<path fill="#FFFFFF" d="M377.322-78.837v43.562h-5.525v-7.487c-2.35,2.856-4.984,5.005-7.908,6.446
			c-2.922,1.441-6.119,2.162-9.59,2.162c-6.166,0-11.43-2.235-15.795-6.707c-4.364-4.47-6.546-9.909-6.546-16.315
			c0-6.272,2.202-11.638,6.607-16.096c4.403-4.458,9.7-6.687,15.895-6.687c3.576,0,6.812,0.761,9.711,2.282
			c2.896,1.521,5.438,3.804,7.627,6.847v-8.008L377.322-78.837L377.322-78.837z M354.92-74.553c-3.119,0-5.998,0.767-8.639,2.3
			c-2.642,1.533-4.74,3.687-6.299,6.459c-1.562,2.773-2.34,5.706-2.34,8.799c0,3.066,0.787,5.999,2.359,8.798
			c1.572,2.8,3.687,4.979,6.34,6.539c2.652,1.561,5.498,2.34,8.539,2.34c3.064,0,5.971-0.773,8.717-2.319
			c2.746-1.547,4.859-3.64,6.341-6.279c1.479-2.64,2.219-5.612,2.219-8.918c0-5.039-1.66-9.252-4.979-12.639
			C363.857-72.86,359.771-74.553,354.92-74.553z"/>
		<path fill="#FFFFFF" d="M388.041-78.837h5.605v7.808c2.241-2.989,4.725-5.225,7.446-6.707c2.723-1.482,5.687-2.222,8.89-2.222
			c3.256,0,6.146,0.828,8.668,2.482c2.522,1.655,4.385,3.884,5.586,6.687c1.201,2.803,1.801,7.167,1.801,13.093v22.422h-5.605
			v-20.78c0-5.018-0.207-8.368-0.623-10.05c-0.649-2.883-1.896-5.051-3.737-6.506c-1.843-1.455-4.244-2.182-7.207-2.182
			c-3.392,0-6.429,1.121-9.111,3.363c-2.682,2.242-4.451,5.019-5.305,8.328c-0.535,2.162-0.801,6.113-0.801,11.852v15.976h-5.605
			L388.041-78.837L388.041-78.837z"/>
		<path fill="#FFFFFF" d="M501.721-69.789l-4.444,2.763c-3.841-5.098-9.078-7.647-15.718-7.647c-5.307,0-9.711,1.707-13.217,5.119
			c-3.506,3.413-5.26,7.559-5.26,12.438c0,3.174,0.807,6.16,2.42,8.959c1.613,2.8,3.826,4.973,6.639,6.52
			c2.812,1.546,5.965,2.319,9.459,2.319c6.398,0,11.623-2.549,15.677-7.647l4.444,2.923c-2.082,3.136-4.879,5.568-8.389,7.297
			s-7.508,2.593-11.992,2.593c-6.887,0-12.6-2.188-17.137-6.566c-4.537-4.377-6.807-9.702-6.807-15.976
			c0-4.217,1.062-8.134,3.184-11.751c2.123-3.617,5.037-6.44,8.748-8.469c3.711-2.028,7.861-3.043,12.453-3.043
			c2.883,0,5.666,0.44,8.348,1.321c2.684,0.881,4.957,2.029,6.826,3.443S500.412-71.977,501.721-69.789z"/>
		<path fill="#FFFFFF" d="M545.115-49.729l4.725,2.482c-1.549,3.043-3.34,5.499-5.369,7.367c-2.031,1.869-4.315,3.29-6.854,4.265
			c-2.539,0.974-5.41,1.461-8.617,1.461c-7.105,0-12.662-2.328-16.67-6.986c-4.008-4.658-6.012-9.923-6.012-15.796
			c0-5.525,1.694-10.45,5.088-14.774c4.303-5.499,10.059-8.248,17.272-8.248c7.429,0,13.357,2.816,17.793,8.448
			c3.152,3.978,4.756,8.942,4.81,14.895h-39.197c0.104,5.06,1.723,9.208,4.85,12.443c3.127,3.235,6.988,4.854,11.586,4.854
			c2.22,0,4.375-0.386,6.476-1.157c2.098-0.771,3.881-1.794,5.352-3.07C541.814-44.823,543.406-46.883,545.115-49.729z
			 M545.115-61.46c-0.748-2.989-1.838-5.378-3.269-7.167c-1.43-1.788-3.319-3.229-5.672-4.324c-2.352-1.094-4.824-1.642-7.416-1.642
			c-4.276,0-7.951,1.375-11.024,4.124c-2.244,2.002-3.941,5.005-5.091,9.009H545.115z"/>
		<path fill="#FFFFFF" d="M559.395-78.837H565v7.808c2.242-2.989,4.725-5.225,7.447-6.707c2.722-1.482,5.686-2.222,8.889-2.222
			c3.256,0,6.146,0.828,8.668,2.482c2.523,1.655,4.385,3.884,5.586,6.687c1.201,2.803,1.803,7.167,1.803,13.093v22.422h-5.604
			v-20.78c0-5.018-0.209-8.368-0.625-10.05c-0.648-2.883-1.896-5.051-3.736-6.506c-1.842-1.455-4.244-2.182-7.207-2.182
			c-3.393,0-6.43,1.121-9.11,3.363c-2.685,2.242-4.453,5.019-5.308,8.328C565.268-60.94,565-56.989,565-51.25v15.976h-5.605V-78.837
			z"/>
		<path fill="#FFFFFF" d="M610.197-95.013h5.604v16.176h8.89v4.845h-8.89v38.718h-5.604v-38.718h-7.648v-4.845h7.648V-95.013z"/>
		<path fill="#FFFFFF" d="M629.756-78.837h5.725v6.366c1.709-2.509,3.511-4.384,5.406-5.625c1.896-1.241,3.869-1.862,5.926-1.862
			c1.548,0,3.203,0.494,4.966,1.481l-2.925,4.725c-1.174-0.507-2.161-0.761-2.963-0.761c-1.869,0-3.67,0.768-5.403,2.302
			c-1.736,1.535-3.058,3.917-3.966,7.147c-0.692,2.482-1.041,7.501-1.041,15.055v14.734h-5.725V-78.837z"/>
		<path fill="#FFFFFF" d="M689.43-49.729l4.726,2.482c-1.552,3.043-3.341,5.499-5.371,7.367c-2.031,1.869-4.314,3.29-6.854,4.265
			c-2.537,0.974-5.41,1.461-8.614,1.461c-7.107,0-12.664-2.328-16.673-6.986c-4.008-4.658-6.012-9.923-6.012-15.796
			c0-5.525,1.697-10.45,5.09-14.774c4.302-5.499,10.06-8.248,17.273-8.248c7.426,0,13.356,2.816,17.793,8.448
			c3.152,3.978,4.754,8.942,4.809,14.895h-39.198c0.106,5.06,1.725,9.208,4.852,12.443c3.127,3.235,6.988,4.854,11.586,4.854
			c2.217,0,4.375-0.386,6.473-1.157c2.099-0.771,3.882-1.794,5.353-3.07S687.719-46.883,689.43-49.729z M689.43-61.46
			c-0.748-2.989-1.838-5.378-3.268-7.167c-1.43-1.788-3.32-3.229-5.674-4.324c-2.353-1.094-4.822-1.642-7.414-1.642
			c-4.277,0-7.953,1.375-11.025,4.124c-2.246,2.002-3.943,5.005-5.092,9.009H689.43z"/>
		<path fill="#FFFFFF" d="M745.373-95.654v5.485c-2.057-0.881-3.818-1.321-5.285-1.321c-1.096,0-2.002,0.22-2.723,0.661
			c-0.722,0.441-1.176,0.948-1.361,1.521c-0.188,0.574-0.281,2.102-0.281,4.584l-0.004,5.886h9.094v4.845h-9.098l-0.031,38.718
			h-5.604v-38.718h-5.728v-4.845h5.728v-6.807c0-3.123,0.285-5.352,0.86-6.687c0.572-1.334,1.548-2.409,2.923-3.223
			s3.034-1.221,4.983-1.221C740.66-96.775,742.836-96.401,745.373-95.654z"/>
		<path fill="#FFFFFF" d="M769.191-79.958c6.713,0,12.272,2.429,16.686,7.287c4.012,4.432,6.018,9.677,6.018,15.735
			c0,6.086-2.118,11.405-6.356,15.956c-4.238,4.551-9.688,6.826-16.346,6.826c-6.687,0-12.146-2.275-16.386-6.826
			c-4.238-4.551-6.356-9.87-6.356-15.956c0-6.032,2.006-11.264,6.018-15.695C756.879-77.516,762.453-79.958,769.191-79.958z
			 M769.172-74.473c-4.66,0-8.666,1.722-12.014,5.165c-3.351,3.443-5.023,7.607-5.023,12.492c0,3.15,0.765,6.086,2.291,8.809
			c1.525,2.723,3.59,4.824,6.188,6.307c2.598,1.48,5.451,2.222,8.559,2.222c3.108,0,5.959-0.741,8.56-2.222
			c2.598-1.482,4.659-3.584,6.188-6.307c1.528-2.723,2.291-5.658,2.291-8.809c0-4.885-1.682-9.049-5.043-12.492
			C777.803-72.751,773.807-74.473,769.172-74.473z"/>
		<path fill="#FFFFFF" d="M799.355-78.837h5.725v6.366c1.709-2.509,3.51-4.384,5.406-5.625c1.895-1.241,3.869-1.862,5.926-1.862
			c1.547,0,3.203,0.494,4.965,1.481l-2.924,4.725c-1.174-0.507-2.162-0.761-2.963-0.761c-1.869,0-3.67,0.768-5.404,2.302
			c-1.736,1.535-3.057,3.917-3.965,7.147c-0.693,2.482-1.041,7.501-1.041,15.055v14.734h-5.725V-78.837z"/>
		<path fill="#FFFFFF" d="M179.557,11.346v60.379h-5.525v-7.488c-2.349,2.857-4.985,5.006-7.908,6.447s-6.12,2.162-9.589,2.162
			c-6.166,0-11.431-2.236-15.795-6.707c-4.364-4.471-6.546-9.91-6.546-16.316c0-6.272,2.202-11.637,6.606-16.095
			c4.404-4.457,9.703-6.687,15.896-6.687c3.577,0,6.813,0.761,9.709,2.282c2.896,1.521,5.438,3.804,7.627,6.847V11.346H179.557z
			 M157.155,32.447c-3.119,0-5.999,0.767-8.638,2.3c-2.64,1.533-4.74,3.687-6.299,6.459c-1.56,2.773-2.339,5.706-2.339,8.799
			c0,3.066,0.787,5.998,2.359,8.796c1.573,2.801,3.686,4.98,6.338,6.539c2.653,1.561,5.499,2.34,8.539,2.34
			c3.066,0,5.972-0.773,8.718-2.318c2.746-1.547,4.859-3.641,6.339-6.279c1.479-2.641,2.22-5.613,2.22-8.917
			c0-5.04-1.66-9.252-4.979-12.639C166.093,34.14,162.007,32.447,157.155,32.447z"/>
		<path fill="#FFFFFF" d="M194.584,10.225c1.275,0,2.365,0.454,3.269,1.361c0.903,0.908,1.355,2.002,1.355,3.283
			c0,1.255-0.452,2.336-1.355,3.243c-0.904,0.908-1.994,1.361-3.269,1.361c-1.25,0-2.326-0.453-3.229-1.361
			C190.452,17.206,190,16.125,190,14.87c0-1.281,0.452-2.375,1.355-3.283C192.258,10.679,193.335,10.225,194.584,10.225z
			 M191.802,28.163h5.605v43.562h-5.605V28.163z"/>
		<path fill="#FFFFFF" d="M246.418,28.163h5.605v34.713c0,6.113-0.534,10.584-1.602,13.414c-1.468,4.004-4.018,7.086-7.647,9.248
			c-3.63,2.162-7.995,3.244-13.093,3.244c-3.737,0-7.094-0.529-10.07-1.586c-2.977-1.059-5.399-2.477-7.267-4.258
			c-1.869-1.781-3.59-4.383-5.165-7.811h6.086c1.657,2.883,3.795,5.018,6.414,6.406c2.619,1.389,5.867,2.082,9.742,2.082
			c3.821,0,7.049-0.711,9.681-2.135c2.633-1.424,4.51-3.213,5.632-5.367c1.123-2.154,1.684-5.633,1.684-10.437v-2.242
			c-2.111,2.67-4.689,4.719-7.736,6.146c-3.046,1.428-6.279,2.143-9.699,2.143c-4.008,0-7.776-0.994-11.303-2.982
			c-3.527-1.988-6.252-4.666-8.176-8.029c-1.924-3.363-2.885-7.059-2.885-11.089c0-4.03,1.001-7.788,3.006-11.272
			c2.004-3.482,4.776-6.238,8.316-8.268c3.541-2.028,7.274-3.043,11.202-3.043c3.259,0,6.299,0.675,9.118,2.021
			c2.819,1.349,5.538,3.571,8.156,6.667L246.418,28.163L246.418,28.163z M229.882,32.447c-3.177,0-6.126,0.768-8.849,2.302
			c-2.723,1.536-4.858,3.658-6.406,6.367s-2.322,5.639-2.322,8.788c0,4.779,1.602,8.728,4.805,11.851
			c3.203,3.123,7.354,4.686,12.452,4.686c5.151,0,9.295-1.549,12.432-4.645c3.136-3.096,4.705-7.168,4.705-12.212
			c0-3.283-0.721-6.211-2.162-8.788s-3.483-4.611-6.126-6.106S232.925,32.447,229.882,32.447z"/>
		<path fill="#FFFFFF" d="M266.609,10.225c1.275,0,2.365,0.454,3.27,1.361c0.902,0.908,1.355,2.002,1.355,3.283
			c0,1.255-0.453,2.336-1.355,3.243c-0.904,0.908-1.994,1.361-3.27,1.361c-1.25,0-2.326-0.453-3.229-1.361
			c-0.903-0.907-1.355-1.988-1.355-3.243c0-1.281,0.452-2.375,1.355-3.283C264.283,10.679,265.359,10.225,266.609,10.225z
			 M263.826,28.163h5.605v43.562h-5.605V28.163z"/>
		<path fill="#FFFFFF" d="M285.05,11.987h5.605v16.176h8.889v4.845h-8.889v38.718h-5.605V33.007h-7.647v-4.845h7.647V11.987z"/>
		<path fill="#FFFFFF" d="M348.402,28.163v43.562h-5.525v-7.488c-2.35,2.857-4.984,5.006-7.908,6.447
			c-2.922,1.441-6.119,2.162-9.589,2.162c-6.166,0-11.431-2.236-15.796-6.707c-4.363-4.471-6.546-9.91-6.546-16.316
			c0-6.272,2.202-11.637,6.606-16.095c4.403-4.457,9.701-6.687,15.896-6.687c3.576,0,6.812,0.761,9.71,2.282
			c2.896,1.521,5.438,3.804,7.626,6.847v-8.008L348.402,28.163L348.402,28.163z M326,32.447c-3.119,0-5.998,0.767-8.638,2.3
			c-2.642,1.533-4.74,3.687-6.3,6.459c-1.561,2.773-2.34,5.706-2.34,8.799c0,3.066,0.786,5.998,2.359,8.796
			c1.572,2.801,3.686,4.98,6.339,6.539c2.652,1.561,5.499,2.34,8.539,2.34c3.065,0,5.972-0.773,8.718-2.318
			c2.746-1.547,4.858-3.641,6.338-6.279c1.48-2.641,2.222-5.613,2.222-8.917c0-5.04-1.66-9.252-4.98-12.639
			C334.939,34.14,330.853,32.447,326,32.447z"/>
		<path fill="#FFFFFF" d="M360.469,11.346h5.605v60.379h-5.605V11.346z"/>
		<path fill="#FFFFFF" d="M402.561,11.346h5.605V35.97c2.268-2.989,4.764-5.226,7.486-6.706c2.723-1.482,5.672-2.223,8.85-2.223
			c3.256,0,6.146,0.828,8.668,2.482c2.523,1.655,4.385,3.878,5.586,6.666c1.201,2.79,1.801,7.161,1.801,13.114v22.421h-5.604v-20.78
			c0-5.017-0.199-8.368-0.601-10.049c-0.694-2.883-1.957-5.051-3.782-6.506c-1.83-1.455-4.226-2.183-7.188-2.183
			c-3.391,0-6.426,1.121-9.108,3.363c-2.683,2.242-4.451,5.019-5.306,8.328c-0.535,2.136-0.801,6.085-0.801,11.851v15.977h-5.605
			V11.346z"/>
		<path fill="#FFFFFF" d="M451.766,28.163h5.605v20.34c0,4.964,0.268,8.38,0.803,10.25c0.803,2.67,2.332,4.777,4.592,6.326
			c2.259,1.549,4.951,2.322,8.078,2.322c3.129,0,5.781-0.754,7.961-2.262c2.179-1.508,3.683-3.49,4.513-5.947
			c0.561-1.682,0.842-5.244,0.842-10.689v-20.34h5.725v21.381c0,6.005-0.701,10.529-2.102,13.572
			c-1.402,3.043-3.51,5.426-6.326,7.148c-2.816,1.721-6.346,2.582-10.59,2.582s-7.789-0.861-10.631-2.582
			c-2.845-1.723-4.966-4.125-6.367-7.207c-1.4-3.084-2.103-7.721-2.103-13.914V28.163L451.766,28.163z"/>
		<path fill="#FFFFFF" d="M502.049,28.163h5.605v7.527c1.951-2.775,3.955-4.805,6.014-6.086c2.832-1.708,5.812-2.562,8.939-2.562
			c2.108,0,4.112,0.414,6.012,1.241c1.896,0.828,3.447,1.929,4.65,3.304c1.2,1.375,2.243,3.343,3.127,5.905
			c1.862-3.416,4.192-6.012,6.989-7.788c2.795-1.774,5.806-2.662,9.027-2.662c3.008,0,5.664,0.761,7.969,2.282
			c2.304,1.521,4.015,3.644,5.133,6.366c1.117,2.723,1.679,6.807,1.679,12.252v23.783h-5.728V47.942
			c0-4.671-0.332-7.881-0.998-9.629c-0.664-1.748-1.801-3.156-3.412-4.225c-1.608-1.067-3.53-1.602-5.766-1.602
			c-2.713,0-5.195,0.801-7.443,2.402c-2.247,1.601-3.891,3.737-4.928,6.406c-1.037,2.67-1.557,7.127-1.557,13.373v17.057h-5.605
			V49.423c0-5.257-0.325-8.829-0.979-10.709c-0.654-1.883-1.795-3.39-3.424-4.525c-1.629-1.134-3.562-1.701-5.806-1.701
			c-2.59,0-5.012,0.781-7.268,2.342c-2.256,1.562-3.924,3.664-5.004,6.307c-1.082,2.643-1.623,6.687-1.623,12.131v18.459h-5.605
			L502.049,28.163L502.049,28.163z"/>
		<path fill="#FFFFFF" d="M622.152,28.163v43.562h-5.525v-7.488c-2.35,2.857-4.984,5.006-7.908,6.447
			c-2.922,1.441-6.119,2.162-9.588,2.162c-6.166,0-11.432-2.236-15.797-6.707c-4.363-4.471-6.545-9.91-6.545-16.316
			c0-6.272,2.201-11.637,6.604-16.095c4.404-4.457,9.703-6.687,15.896-6.687c3.576,0,6.812,0.761,9.709,2.282
			c2.896,1.521,5.438,3.804,7.627,6.847v-8.008L622.152,28.163L622.152,28.163z M599.75,32.447c-3.119,0-5.998,0.767-8.637,2.3
			c-2.642,1.533-4.74,3.687-6.302,6.459c-1.559,2.773-2.338,5.706-2.338,8.799c0,3.066,0.785,5.998,2.359,8.796
			c1.572,2.801,3.686,4.98,6.338,6.539c2.652,1.561,5.5,2.34,8.539,2.34c3.066,0,5.973-0.773,8.719-2.318
			c2.746-1.547,4.857-3.641,6.338-6.279c1.48-2.641,2.222-5.613,2.222-8.917c0-5.04-1.66-9.252-4.98-12.639
			C608.689,34.14,604.604,32.447,599.75,32.447z"/>
		<path fill="#FFFFFF" d="M634.594,28.163h5.605v7.808c2.242-2.989,4.725-5.226,7.447-6.706c2.723-1.482,5.686-2.223,8.889-2.223
			c3.256,0,6.146,0.828,8.668,2.482c2.522,1.655,4.385,3.884,5.586,6.687c1.201,2.803,1.801,7.167,1.801,13.093v22.421h-5.604
			V50.944c0-5.017-0.207-8.368-0.623-10.049c-0.65-2.883-1.896-5.051-3.738-6.506c-1.842-1.455-4.244-2.183-7.207-2.183
			c-3.391,0-6.428,1.121-9.111,3.363c-2.682,2.242-4.45,5.019-5.305,8.328c-0.535,2.162-0.801,6.113-0.801,11.851v15.977h-5.605
			L634.594,28.163L634.594,28.163z"/>
		<path fill="#FFFFFF" d="M686.887,10.225c1.277,0,2.367,0.454,3.271,1.361c0.903,0.908,1.354,2.002,1.354,3.283
			c0,1.255-0.451,2.336-1.354,3.243c-0.902,0.908-1.992,1.361-3.271,1.361c-1.248,0-2.323-0.453-3.229-1.361
			c-0.902-0.907-1.355-1.988-1.355-3.243c0-1.281,0.453-2.375,1.355-3.283C684.562,10.679,685.639,10.225,686.887,10.225z
			 M684.105,28.163h5.604v43.562h-5.604V28.163z"/>
		<path fill="#FFFFFF" d="M705.328,11.987h5.604v16.176h8.89v4.845h-8.89v38.718h-5.604V33.007h-7.646v-4.845h7.646V11.987z"/>
		<path fill="#FFFFFF" d="M729.992,10.225c1.274,0,2.365,0.454,3.27,1.361c0.902,0.908,1.355,2.002,1.355,3.283
			c0,1.255-0.453,2.336-1.355,3.243c-0.903,0.908-1.994,1.361-3.27,1.361c-1.25,0-2.326-0.453-3.229-1.361
			c-0.903-0.907-1.354-1.988-1.354-3.243c0-1.281,0.451-2.375,1.354-3.283C727.666,10.679,728.742,10.225,729.992,10.225z
			 M727.209,28.163h5.605v43.562h-5.605V28.163z"/>
		<path fill="#FFFFFF" d="M781.076,57.27l4.725,2.482c-1.549,3.043-3.34,5.5-5.369,7.367c-2.03,1.869-4.315,3.291-6.854,4.266
			c-2.539,0.973-5.41,1.461-8.617,1.461c-7.105,0-12.662-2.328-16.67-6.986c-4.008-4.658-6.012-9.924-6.012-15.796
			c0-5.525,1.694-10.45,5.088-14.774c4.303-5.498,10.059-8.248,17.272-8.248c7.429,0,13.357,2.816,17.793,8.448
			c3.152,3.978,4.757,8.942,4.81,14.894h-39.197c0.105,5.06,1.723,9.208,4.85,12.443c3.127,3.236,6.988,4.854,11.586,4.854
			c2.22,0,4.375-0.385,6.476-1.156c2.098-0.771,3.881-1.795,5.352-3.07C777.775,62.176,779.367,60.116,781.076,57.27z
			 M781.076,45.54c-0.748-2.989-1.838-5.378-3.269-7.167c-1.43-1.788-3.319-3.229-5.672-4.324c-2.352-1.094-4.823-1.642-7.416-1.642
			c-4.276,0-7.951,1.375-11.024,4.124c-2.244,2.002-3.941,5.005-5.091,9.009H781.076z"/>
		<path fill="#FFFFFF" d="M818.568,32.927l-3.604,3.724c-2.998-2.909-5.928-4.364-8.791-4.364c-1.82,0-3.379,0.601-4.676,1.802
			c-1.299,1.201-1.947,2.603-1.947,4.204c0,1.415,0.535,2.763,1.604,4.044c1.069,1.309,3.317,2.843,6.741,4.604
			c4.173,2.162,7.009,4.243,8.507,6.245c1.471,2.029,2.207,4.312,2.207,6.848c0,3.576-1.259,6.605-3.771,9.088
			c-2.514,2.482-5.654,3.725-9.424,3.725c-2.515,0-4.912-0.549-7.199-1.643c-2.285-1.094-4.176-2.602-5.674-4.523l3.522-4.004
			c2.863,3.23,5.9,4.844,9.111,4.844c2.246,0,4.158-0.721,5.738-2.162c1.578-1.441,2.367-3.135,2.367-5.084
			c0-1.602-0.521-3.029-1.564-4.285c-1.043-1.227-3.396-2.775-7.062-4.646c-3.933-2.027-6.607-4.029-8.025-6.005
			c-1.416-1.975-2.125-4.23-2.125-6.767c0-3.31,1.129-6.059,3.389-8.248c2.261-2.188,5.113-3.283,8.562-3.283
			C810.467,27.042,814.506,29.003,818.568,32.927z"/>
		<path fill="#FFFFFF" d="M256.481,144.211l-4.444,2.762c-3.839-5.098-9.078-7.646-15.717-7.646c-5.306,0-9.711,1.707-13.217,5.119
			s-5.259,7.559-5.259,12.438c0,3.175,0.807,6.16,2.419,8.959c1.612,2.8,3.826,4.974,6.639,6.521
			c2.813,1.545,5.965,2.318,9.458,2.318c6.399,0,11.625-2.55,15.677-7.646l4.444,2.922c-2.082,3.137-4.878,5.568-8.388,7.297
			c-3.51,1.729-7.507,2.594-11.992,2.594c-6.887,0-12.599-2.188-17.137-6.565s-6.807-9.703-6.807-15.978
			c0-4.217,1.061-8.133,3.183-11.75c2.122-3.617,5.038-6.439,8.749-8.469c3.71-2.029,7.861-3.043,12.452-3.043
			c2.883,0,5.666,0.439,8.348,1.32c2.682,0.881,4.958,2.029,6.827,3.443C253.585,140.221,255.173,142.022,256.481,144.211z"/>
		<path fill="#FFFFFF" d="M262.98,135.163h5.605v20.34c0,4.965,0.268,8.381,0.803,10.25c0.803,2.67,2.332,4.776,4.592,6.326
			c2.258,1.549,4.951,2.321,8.078,2.321c3.129,0,5.781-0.754,7.961-2.262c2.178-1.508,3.682-3.49,4.512-5.947
			c0.561-1.682,0.842-5.243,0.842-10.688v-20.34h5.725v21.381c0,6.006-0.701,10.529-2.102,13.572
			c-1.402,3.043-3.51,5.426-6.326,7.147c-2.816,1.721-6.346,2.582-10.59,2.582s-7.789-0.861-10.631-2.582
			c-2.844-1.723-4.965-4.125-6.367-7.207c-1.4-3.084-2.101-7.721-2.101-13.914L262.98,135.163L262.98,135.163z"/>
		<path fill="#FFFFFF" d="M311.011,118.346h5.605v60.378h-5.605V118.346z"/>
		<path fill="#FFFFFF" d="M330.267,118.987h5.605v16.176h8.889v4.844h-8.889v38.72h-5.605v-38.72h-7.646v-4.844h7.646V118.987z"/>
		<path fill="#FFFFFF" d="M350.209,135.163h5.605v20.34c0,4.965,0.268,8.381,0.803,10.25c0.803,2.67,2.332,4.776,4.592,6.326
			c2.258,1.549,4.951,2.321,8.078,2.321c3.129,0,5.781-0.754,7.961-2.262c2.178-1.508,3.682-3.49,4.512-5.947
			c0.562-1.682,0.842-5.243,0.842-10.688v-20.34h5.726v21.381c0,6.006-0.701,10.529-2.103,13.572s-3.51,5.426-6.325,7.147
			c-2.816,1.721-6.347,2.582-10.591,2.582c-4.243,0-7.788-0.861-10.631-2.582c-2.844-1.723-4.965-4.125-6.366-7.207
			c-1.4-3.084-2.103-7.721-2.103-13.914V135.163L350.209,135.163z"/>
		<path fill="#FFFFFF" d="M397.574,135.163h5.727v6.365c1.707-2.508,3.51-4.383,5.404-5.625c1.895-1.24,3.871-1.861,5.926-1.861
			c1.549,0,3.203,0.494,4.965,1.48l-2.922,4.725c-1.176-0.506-2.162-0.76-2.963-0.76c-1.869,0-3.672,0.768-5.406,2.303
			c-1.733,1.535-3.057,3.916-3.963,7.146c-0.695,2.482-1.041,7.5-1.041,15.056v14.733h-5.727V135.163L397.574,135.163z"/>
		<path fill="#FFFFFF" d="M463.549,135.163v43.562h-5.524v-7.488c-2.351,2.857-4.984,5.007-7.908,6.447
			c-2.922,1.441-6.119,2.162-9.59,2.162c-6.166,0-11.431-2.236-15.795-6.707c-4.363-4.471-6.548-9.91-6.548-16.315
			c0-6.271,2.203-11.637,6.607-16.096c4.404-4.457,9.701-6.686,15.895-6.686c3.576,0,6.812,0.76,9.711,2.281
			c2.896,1.521,5.438,3.805,7.628,6.848v-8.008L463.549,135.163L463.549,135.163z M441.146,139.446c-3.119,0-5.998,0.768-8.64,2.301
			c-2.641,1.533-4.74,3.686-6.299,6.459c-1.562,2.772-2.34,5.705-2.34,8.799c0,3.065,0.787,5.998,2.358,8.797
			c1.572,2.802,3.687,4.98,6.341,6.539c2.651,1.562,5.497,2.341,8.538,2.341c3.064,0,5.972-0.773,8.718-2.318
			c2.746-1.547,4.858-3.641,6.34-6.279c1.479-2.641,2.219-5.613,2.219-8.918c0-5.039-1.66-9.252-4.979-12.639
			C450.084,141.139,445.998,139.446,441.146,139.446z"/>
		<path fill="#FFFFFF" d="M473.646,118.346h5.604v60.378h-5.604V118.346z"/>
		<path fill="#FFFFFF" d="M511.803,118.346h5.605v24.623c2.268-2.988,4.764-5.225,7.486-6.705c2.723-1.482,5.672-2.223,8.85-2.223
			c3.256,0,6.146,0.828,8.668,2.482c2.523,1.654,4.385,3.877,5.586,6.666s1.801,7.161,1.801,13.113v22.423h-5.604v-20.781
			c0-5.019-0.199-8.367-0.601-10.049c-0.694-2.884-1.957-5.052-3.782-6.506c-1.83-1.455-4.226-2.184-7.188-2.184
			c-3.391,0-6.426,1.121-9.109,3.363c-2.682,2.242-4.45,5.02-5.305,8.328c-0.535,2.138-0.801,6.086-0.801,11.853v15.978h-5.605
			V118.346L511.803,118.346z"/>
		<path fill="#FFFFFF" d="M596.223,164.27l4.726,2.482c-1.549,3.043-3.34,5.5-5.369,7.367c-2.031,1.869-4.316,3.291-6.854,4.266
			c-2.539,0.973-5.409,1.461-8.616,1.461c-7.105,0-12.662-2.328-16.671-6.986c-4.008-4.657-6.012-9.924-6.012-15.797
			c0-5.524,1.695-10.448,5.088-14.772c4.304-5.498,10.06-8.248,17.273-8.248c7.428,0,13.356,2.816,17.793,8.447
			c3.152,3.979,4.756,8.942,4.809,14.895h-39.196c0.104,5.062,1.723,9.209,4.85,12.443c3.127,3.235,6.988,4.854,11.586,4.854
			c2.219,0,4.375-0.386,6.475-1.156c2.099-0.771,3.882-1.795,5.353-3.07C592.922,169.176,594.514,167.116,596.223,164.27z
			 M596.223,152.54c-0.748-2.99-1.838-5.379-3.268-7.168c-1.43-1.787-3.32-3.229-5.672-4.324c-2.353-1.094-4.824-1.641-7.416-1.641
			c-4.277,0-7.951,1.375-11.025,4.123c-2.244,2.002-3.94,5.006-5.09,9.01H596.223z"/>
		<path fill="#FFFFFF" d="M609.307,135.163h5.728v6.365c1.707-2.508,3.51-4.383,5.403-5.625c1.896-1.24,3.871-1.861,5.927-1.861
			c1.549,0,3.203,0.494,4.965,1.48l-2.922,4.725c-1.176-0.506-2.162-0.76-2.963-0.76c-1.869,0-3.672,0.768-5.406,2.303
			s-3.057,3.916-3.963,7.146c-0.695,2.482-1.041,7.5-1.041,15.056v14.733h-5.728V135.163z"/>
		<path fill="#FFFFFF" d="M637.879,117.225c1.277,0,2.367,0.453,3.271,1.361s1.354,2.002,1.354,3.283
			c0,1.254-0.451,2.336-1.354,3.242c-0.902,0.908-1.992,1.361-3.271,1.361c-1.248,0-2.324-0.453-3.229-1.361
			c-0.902-0.906-1.355-1.988-1.355-3.242c0-1.281,0.453-2.375,1.355-3.283C635.555,117.678,636.631,117.225,637.879,117.225z
			 M635.098,135.163h5.605v43.562h-5.605V135.163z"/>
		<path fill="#FFFFFF" d="M654.352,118.987h5.605v16.176h8.889v4.844h-8.889v38.72h-5.605v-38.72h-7.646v-4.844h7.646V118.987z"/>
		<path fill="#FFFFFF" d="M715.736,135.163v43.562h-5.525v-7.488c-2.35,2.857-4.984,5.007-7.908,6.447
			c-2.922,1.441-6.119,2.162-9.588,2.162c-6.166,0-11.432-2.236-15.797-6.707c-4.363-4.471-6.545-9.91-6.545-16.315
			c0-6.271,2.201-11.637,6.604-16.096c4.404-4.457,9.703-6.686,15.896-6.686c3.576,0,6.812,0.76,9.709,2.281
			c2.896,1.521,5.438,3.805,7.627,6.848v-8.008L715.736,135.163L715.736,135.163z M693.334,139.446
			c-3.119,0-5.998,0.768-8.637,2.301c-2.642,1.533-4.74,3.686-6.302,6.459c-1.559,2.772-2.338,5.705-2.338,8.799
			c0,3.065,0.785,5.998,2.359,8.797c1.572,2.802,3.686,4.98,6.338,6.539c2.652,1.562,5.5,2.341,8.539,2.341
			c3.066,0,5.973-0.773,8.719-2.318c2.746-1.547,4.857-3.641,6.338-6.279c1.48-2.641,2.222-5.613,2.222-8.918
			c0-5.039-1.66-9.252-4.98-12.639C702.273,141.139,698.188,139.446,693.334,139.446z"/>
		<path fill="#FFFFFF" d="M763.568,135.163h5.604v34.713c0,6.113-0.533,10.584-1.602,13.414c-1.47,4.004-4.019,7.086-7.646,9.248
			c-3.631,2.162-7.996,3.244-13.094,3.244c-3.736,0-7.094-0.529-10.07-1.587c-2.977-1.059-5.397-2.477-7.266-4.258
			c-1.869-1.78-3.592-4.383-5.166-7.811h6.086c1.656,2.883,3.795,5.018,6.414,6.406c2.619,1.388,5.867,2.082,9.742,2.082
			c3.819,0,7.049-0.711,9.682-2.135c2.631-1.424,4.51-3.213,5.631-5.367c1.123-2.154,1.685-5.633,1.685-10.437v-2.241
			c-2.109,2.67-4.689,4.719-7.734,6.146c-3.047,1.428-6.279,2.144-9.699,2.144c-4.008,0-7.774-0.994-11.303-2.982
			s-6.254-4.666-8.176-8.029c-1.924-3.363-2.888-7.059-2.888-11.09s1.003-7.787,3.007-11.271c2.004-3.482,4.776-6.238,8.315-8.268
			c3.541-2.029,7.275-3.043,11.203-3.043c3.26,0,6.299,0.674,9.117,2.021c2.819,1.348,5.537,3.57,8.156,6.666L763.568,135.163
			L763.568,135.163z M747.033,139.446c-3.178,0-6.127,0.768-8.851,2.303c-2.723,1.535-4.856,3.658-6.405,6.367
			s-2.322,5.639-2.322,8.786c0,4.779,1.602,8.729,4.805,11.853s7.354,4.687,12.453,4.687c5.15,0,9.295-1.549,12.432-4.646
			c3.138-3.096,4.705-7.168,4.705-12.213c0-3.283-0.721-6.211-2.161-8.787c-1.441-2.576-3.484-4.611-6.128-6.107
			C752.918,140.194,750.076,139.446,747.033,139.446z"/>
		<path fill="#FFFFFF" d="M815.926,164.27l4.726,2.482c-1.55,3.043-3.341,5.5-5.369,7.367c-2.031,1.869-4.316,3.291-6.854,4.266
			c-2.539,0.973-5.41,1.461-8.617,1.461c-7.104,0-12.661-2.328-16.67-6.986c-4.008-4.657-6.012-9.924-6.012-15.797
			c0-5.524,1.695-10.448,5.088-14.772c4.303-5.498,10.06-8.248,17.273-8.248c7.428,0,13.356,2.816,17.793,8.447
			c3.151,3.979,4.756,8.942,4.809,14.895h-39.197c0.105,5.062,1.724,9.209,4.851,12.443c3.127,3.235,6.987,4.854,11.586,4.854
			c2.219,0,4.375-0.386,6.475-1.156c2.099-0.771,3.881-1.795,5.353-3.07C812.625,169.176,814.217,167.116,815.926,164.27z
			 M815.926,152.54c-0.748-2.99-1.838-5.379-3.268-7.168c-1.43-1.787-3.32-3.229-5.672-4.324c-2.353-1.094-4.824-1.641-7.416-1.641
			c-4.277,0-7.951,1.375-11.025,4.123c-2.244,2.002-3.941,5.006-5.09,9.01H815.926z"/>
		<path fill="#FFFFFF" d="M178.892,157.038l3.989,4.228c-2.562,2.27-4.994,4.229-7.296,5.875c1.604,1.475,3.694,3.5,6.27,6.075
			c2.033,2.023,3.782,3.892,5.246,5.604h-8.21l-7.812-8.049c-4.907,3.951-8.896,6.526-11.965,7.729
			c-3.07,1.201-6.313,1.803-9.729,1.803c-4.538,0-8.182-1.303-10.931-3.906c-2.75-2.602-4.124-5.854-4.124-9.752
			c0-2.938,0.927-5.881,2.781-8.832c1.854-2.948,5.635-6.682,11.343-11.194c-3.226-3.895-5.298-6.77-6.218-8.623
			c-0.919-1.855-1.379-3.623-1.379-5.303c0-2.936,1.134-5.363,3.403-7.283c2.616-2.242,5.872-3.363,9.77-3.363
			c2.456,0,4.698,0.494,6.727,1.482c2.028,0.988,3.577,2.316,4.645,3.982c1.067,1.67,1.602,3.438,1.602,5.307
			c0,1.975-0.695,4.078-2.085,6.305c-1.39,2.23-4.13,5.08-8.219,8.549l8.929,9.369l5.85,5.935
			C174.619,160.661,177.091,158.684,178.892,157.038z M152.336,151.061c-5.004,3.767-8.283,6.765-9.834,8.992
			c-1.552,2.23-2.328,4.293-2.328,6.189c0,2.244,0.949,4.227,2.849,5.949c1.898,1.723,4.225,2.584,6.979,2.584
			c2.086,0,4.132-0.428,6.138-1.281c3.155-1.361,6.773-3.674,10.851-6.936l-9.29-9.572
			C156.1,155.305,154.311,153.331,152.336,151.061z M153.053,143.264c2.861-2.215,5.014-4.391,6.458-6.525
			c1.016-1.521,1.524-2.869,1.524-4.045c0-1.361-0.663-2.535-1.988-3.523c-1.325-0.986-3.084-1.48-5.279-1.48
			c-2.088,0-3.788,0.508-5.099,1.521c-1.312,1.014-1.968,2.215-1.968,3.604c0,1.068,0.268,2.068,0.804,3.002
			C148.818,138.086,150.667,140.569,153.053,143.264z"/>
	</g>
</g>
</svg>
