<?xml version="1.0" encoding="utf-8"?>
<!-- Generator: Adobe Illustrator 16.0.4, SVG Export Plug-In . SVG Version: 6.00 Build 0)  -->
<!DOCTYPE svg PUBLIC "-//W3C//DTD SVG 1.1//EN" "http://www.w3.org/Graphics/SVG/1.1/DTD/svg11.dtd">
<svg version="1.1" id="Layer_1" xmlns="http://www.w3.org/2000/svg" xmlns:xlink="http://www.w3.org/1999/xlink" x="0px" y="0px"
	 width="714.089px" height="788.903px" viewBox="0 0 714.089 788.903" enable-background="new 0 0 714.089 788.903"
	 xml:space="preserve">
<g>
	<path fill="#BEBEBE" d="M544.995,412.54c-90.916,0-129.173,63.074-129.974,64.433c-0.021,0.02-0.062,0.082-0.062,0.082V412.52
		v-37.125v-73.002v-0.02c0.02,0.02,0.042,0.04,0.042,0.04c9.608,12.44,20.721,23.626,33.07,33.297
		c0.04,0.053,0.08,0.083,0.143,0.123c4.053,3.171,8.253,6.185,12.572,9.014c0.393,0.257,0.804,0.514,1.193,0.762
		c2.266,1.451,4.53,2.861,6.835,4.217c0.863,0.495,1.728,1.009,2.634,1.503c1.646,0.946,3.354,1.863,5.062,2.756
		c1.256,0.669,2.51,1.318,3.785,1.958c1.071,0.514,2.12,1.048,3.191,1.543c1.913,0.904,3.848,1.778,5.823,2.622
		c0.906,0.412,1.83,0.784,2.757,1.154c1.873,0.782,3.745,1.533,5.66,2.232c0.885,0.33,1.748,0.639,2.612,0.956
		c1.936,0.689,3.87,1.349,5.803,1.965c0.762,0.247,1.523,0.495,2.265,0.731c2.305,0.699,4.609,1.349,6.915,1.945
		c0.823,0.235,1.647,0.442,2.469,0.647c2.345,0.586,4.692,1.131,7.06,1.625c0.762,0.165,1.543,0.299,2.345,0.455
		c1.935,0.379,3.89,0.719,5.825,1.039c1.029,0.165,2.016,0.339,3.004,0.484c2.077,0.287,4.157,0.554,6.235,0.792
		c1.153,0.112,2.284,0.257,3.436,0.35c2.101,0.205,4.24,0.35,6.34,0.494c1.44,0.083,2.879,0.123,4.32,0.175
		c1.009,0.05,2.018,0.073,3.046,0.083c1.236,0.03,2.43,0.06,3.663,0.06c51.57,0,98.242-20.897,132.116-54.604l-26.238-26.219
		c-20.353,20.221-46.489,34.666-75.649,40.614c-1.458,0.288-2.941,0.524-4.402,0.782c-0.926,0.165-1.872,0.359-2.818,0.504
		c-7.491,1.154-15.188,1.771-23.008,1.771c-75.01,0-136.971-55.102-148.104-126.99v-0.896v-44.244v-0.999
		c11.134-71.901,73.095-126.98,148.104-126.98c41.508,0,79.085,16.865,106.268,44.1l26.259-26.249
		C667.048,27.36,629.263,7.984,587.099,2.572c-7.801-0.999-15.721-1.563-23.789-1.563c-41.981,0-80.75,13.829-111.988,37.164
		c-0.042,0.031-0.085,0.061-0.104,0.083c-4.59,3.437-8.991,7.069-13.231,10.896c-0.308,0.29-0.617,0.567-0.946,0.854
		c-1.893,1.741-3.766,3.531-5.618,5.361c-0.39,0.382-0.762,0.761-1.132,1.153c-1.853,1.84-3.643,3.713-5.391,5.638
		c-0.207,0.237-0.412,0.482-0.619,0.709c-1.708,1.873-3.354,3.788-4.959,5.721c-0.225,0.27-0.472,0.534-0.68,0.804
		c-1.233,1.513-2.446,3.066-3.62,4.62v-0.072c-0.043,0.02-0.043,0.032-0.062,0.052V0.977V0h-40.107v0.977V76.84v0.02v93.573
		c0,0.03,0,0.05,0,0.072v36.576c0,0.022,0,0.052,0,0.085v92.077v0.013v76.139v37.125v76.841v93.59c0,0.043,0,0.062,0,0.085v36.566
		c0,0.022,0,0.062,0,0.082v92.09v76.059v1.071h39.14v-1.071V582.601c0-2.571,0.287-6.481,1.029-11.296
		c5.226-35.23,32.698-120.673,128.985-120.673c109.479,0,132.94,109.499,132.94,143.7v193.5v1.071h37.143v-1.071V603.161
		C714.089,490.719,636.86,412.54,544.995,412.54z"/>
	<path d="M336.225,0v76.613c-4.137-5.698-8.52-11.307-13.399-16.688C290.478,24.313,250.536,4.692,203.1,0.977
		c-5.533-0.442-11.142-0.719-16.885-0.719c-5.741,0-11.359,0.277-16.895,0.719c-47.67,3.725-87.685,23.46-120.066,59.256
		C16.535,96.409,0.144,139.071,0.011,188.234c0,0.185-0.011,0.369-0.011,0.534c0,0.175,0.011,0.33,0.011,0.504
		c0.132,49.605,17.481,92.983,52.062,130.129c34.696,37.268,79.382,55.9,134.142,55.9c54.515,0,99.119-18.633,133.834-55.9
		c5.968-6.422,11.236-13.109,16.166-19.911v75.904v37.125v76.594c-4.127-5.679-8.5-11.276-13.389-16.628
		c-36.114-39.8-81.654-59.679-136.601-59.679c-55.179,0-100.814,20.004-136.96,59.966c-32.72,36.157-49.11,78.818-49.244,128.002
		c0,0.164-0.01,0.329-0.01,0.534c0,0.165,0.01,0.329,0.01,0.494c0.134,49.593,17.482,93.014,52.065,130.139
		c34.693,37.248,79.379,55.891,134.139,55.891c54.515,0,99.109-18.643,133.845-55.891c5.958-6.422,11.227-13.148,16.155-19.94
		v76.902h39.655V0H336.225z M187.481,338.971c-82.953,0-150.183-67.229-150.183-150.182c0-82.943,67.229-150.163,150.183-150.163
		c76.336,0,139.195,56.982,148.744,130.716v38.913C326.677,281.989,263.817,338.971,187.481,338.971z M187.504,751.49
		c-82.966,0-150.195-67.229-150.195-150.182s67.229-150.162,150.195-150.162c76.336,0,139.173,56.961,148.721,130.715v38.914
		C326.677,694.509,263.84,751.49,187.504,751.49z"/>
</g>
<g>
</g>
<g>
</g>
<g>
</g>
<g>
</g>
<g>
</g>
<g>
</g>
<g>
</g>
<g>
</g>
<g>
</g>
<g>
</g>
<g>
</g>
<g>
</g>
<g>
</g>
<g>
</g>
<g>
</g>
</svg>
