<?xml version="1.0" encoding="UTF-8" standalone="no"?>
<!-- Created with Inkscape (http://www.inkscape.org/) -->

<svg
   xmlns:dc="http://purl.org/dc/elements/1.1/"
   xmlns:cc="http://creativecommons.org/ns#"
   xmlns:rdf="http://www.w3.org/1999/02/22-rdf-syntax-ns#"
   xmlns:svg="http://www.w3.org/2000/svg"
   xmlns="http://www.w3.org/2000/svg"
   xmlns:sodipodi="http://sodipodi.sourceforge.net/DTD/sodipodi-0.dtd"
   xmlns:inkscape="http://www.inkscape.org/namespaces/inkscape"
   version="1.1"
   id="svg2"
   xml:space="preserve"
   width="1039.9067"
   height="450.61334"
   viewBox="0 0 1039.9067 450.61334"
   sodipodi:docname="OEAW_EN_blau.svg"
   inkscape:version="0.92.1 r15371"><metadata
     id="metadata8"><rdf:RDF><cc:Work
         rdf:about=""><dc:format>image/svg+xml</dc:format><dc:type
           rdf:resource="http://purl.org/dc/dcmitype/StillImage" /><dc:title></dc:title></cc:Work></rdf:RDF></metadata><defs
     id="defs6" /><sodipodi:namedview
     pagecolor="#ffffff"
     bordercolor="#666666"
     borderopacity="1"
     objecttolerance="10"
     gridtolerance="10"
     guidetolerance="10"
     inkscape:pageopacity="0"
     inkscape:pageshadow="2"
     inkscape:window-width="1726"
     inkscape:window-height="1001"
     id="namedview4"
     showgrid="false"
     inkscape:zoom="0.42407649"
     inkscape:cx="519.95337"
     inkscape:cy="225.30667"
     inkscape:window-x="0"
     inkscape:window-y="0"
     inkscape:window-maximized="0"
     inkscape:current-layer="g10" /><g
     id="g10"
     inkscape:groupmode="layer"
     inkscape:label="ink_ext_XXXXXX"
     transform="matrix(1.3333333,0,0,-1.3333333,0,450.61333)"><g
       id="g12"
       transform="scale(0.1)"><path
         d="M 0,0 H 3899.64 V 259.961 H 0 Z"
         style="fill:#3458b0;fill-opacity:1;fill-rule:nonzero;stroke:none"
         id="path14"
         inkscape:connector-curvature="0" /><path
         d="m 3899.64,3119.59 h 3899.64 v 259.965 H 3899.64 Z"
         style="fill:#3458b0;fill-opacity:1;fill-rule:nonzero;stroke:none"
         id="path16"
         inkscape:connector-curvature="0" /><path
         d="m 832.195,1196.54 c 231.635,0 421.125,191.11 421.125,426.67 0,233.92 -189.49,429.95 -421.125,429.95 -229.965,0 -419.457,-196.03 -419.457,-429.95 0,-235.56 189.492,-426.67 419.457,-426.67 z m 0,1021.36 c 323.955,0 583.065,-265.24 583.065,-594.69 0,-329.46 -259.11,-591.38 -583.065,-591.38 -323.91,0 -581.414,261.92 -581.414,591.38 0,329.45 257.504,594.69 581.414,594.69"
         style="fill:#231f20;fill-opacity:1;fill-rule:nonzero;stroke:none"
         id="path18"
         inkscape:connector-curvature="0" /><path
         d="m 2114.58,1431.9 -199.2,451.37 h -8.11 L 1709.69,1431.9 Z m -733.68,-349.23 497.22,1108.65 c 4.85,9.88 19.43,18.13 27.53,18.13 h 16.2 c 8.08,0 22.64,-8.25 27.52,-18.13 l 493.99,-1108.65 c 9.72,-21.42 -3.23,-42.85 -27.54,-42.85 H 2313.8 c -19.43,0 -30.78,9.9 -37.26,24.72 l -100.42,225.69 H 1646.5 c -32.37,-75.79 -66.39,-149.93 -98.79,-225.69 -4.84,-11.53 -17.82,-24.72 -37.24,-24.72 h -102.03 c -24.31,0 -37.26,21.43 -27.54,42.85"
         style="fill:#231f20;fill-opacity:1;fill-rule:nonzero;stroke:none"
         id="path20"
         inkscape:connector-curvature="0" /><path
         d="m 2285.52,2169.9 c -6.49,23.08 6.44,39.54 29.14,39.54 h 108.51 c 12.98,0 25.91,-11.53 29.13,-23.05 l 195.99,-756.14 h 6.47 l 263.99,777.55 c 3.27,9.88 14.6,18.12 27.54,18.12 h 29.16 c 12.96,0 24.31,-8.24 27.54,-18.12 l 267.23,-777.55 h 6.46 l 192.74,756.14 c 3.25,11.52 16.2,23.05 29.15,23.05 h 108.53 c 22.67,0 35.63,-16.46 29.15,-39.54 L 3330.13,1062.89 c -3.21,-13.17 -16.17,-23.07 -29.12,-23.07 h -25.93 c -11.33,0 -24.3,8.25 -27.55,18.13 l -285.04,818.75 h -8.09 l -280.2,-818.75 c -3.23,-9.88 -16.19,-18.13 -27.53,-18.13 h -25.92 c -12.96,0 -25.91,9.9 -29.13,23.07 l -306.1,1107.01"
         style="fill:#231f20;fill-opacity:1;fill-rule:nonzero;stroke:none"
         id="path22"
         inkscape:connector-curvature="0" /><path
         d="m 738.535,2386.02 c 0,-21.46 -17.437,-38.85 -38.906,-38.85 H 595.996 c -21.469,0 -38.906,17.39 -38.906,38.85 v 103.69 c 0,21.47 17.437,38.87 38.906,38.87 h 103.633 c 21.469,0 38.906,-17.4 38.906,-38.87 v -103.69"
         style="fill:#231f20;fill-opacity:1;fill-rule:nonzero;stroke:none"
         id="path24"
         inkscape:connector-curvature="0" /><path
         d="m 1108.95,2386.02 c 0,-21.46 -17.42,-38.85 -38.87,-38.85 H 966.43 c -21.469,0 -38.907,17.39 -38.907,38.85 v 103.69 c 0,21.47 17.438,38.87 38.907,38.87 h 103.65 c 21.45,0 38.87,-17.4 38.87,-38.87 v -103.69"
         style="fill:#231f20;fill-opacity:1;fill-rule:nonzero;stroke:none"
         id="path26"
         inkscape:connector-curvature="0" /><path
         d="m 5106.46,2038.81 -28.23,61.3 h -0.37 l -27.86,-61.3 z m -152.68,-79.49 116.28,250.01 c 1.11,2.23 3.69,4.09 6.3,4.09 h 3.72 c 2.61,0 5.22,-1.86 6.34,-4.09 l 116.26,-250.01 c 2.22,-4.83 -0.74,-9.66 -6.31,-9.66 h -41.24 c -6.69,0 -9.67,2.24 -13,9.28 l -13.36,29.35 h -101.06 l -13.39,-29.72 c -1.84,-4.45 -5.95,-8.91 -13.36,-8.91 h -40.87 c -5.56,0 -8.54,4.83 -6.31,9.66"
         style="fill:#231f20;fill-opacity:1;fill-rule:nonzero;stroke:none"
         id="path28"
         inkscape:connector-curvature="0" /><path
         d="m 5225.02,2202.65 c 0,3.7 3.31,7.06 7.05,7.06 h 45.7 c 4.08,0 7.06,-3.36 7.06,-7.06 v -150.46 c 0,-26 19.32,-46.8 45.69,-46.8 26.73,0 46.44,20.8 46.44,46.8 v 150.46 c 0,3.7 2.96,7.06 7.03,7.06 h 45.73 c 3.68,0 7.02,-3.36 7.02,-7.06 v -153.42 c 0,-56.48 -47.54,-103.28 -106.22,-103.28 -58.34,0 -105.5,46.8 -105.5,103.28 v 153.42"
         style="fill:#231f20;fill-opacity:1;fill-rule:nonzero;stroke:none"
         id="path30"
         inkscape:connector-curvature="0" /><path
         d="m 5481.77,1984.95 17.45,30.83 c 2.99,4.84 10.04,4.09 12.63,2.23 1.49,-0.74 28.22,-20.43 52.74,-20.43 14.88,0 25.64,9.29 25.64,22.29 0,15.6 -13,27.48 -38.25,37.52 -31.97,12.63 -72.07,37.52 -72.07,82.1 0,36.77 28.61,73.93 85.83,73.93 38.63,0 68.34,-19.69 79.47,-27.86 4.47,-2.61 3.71,-9.3 2.24,-11.89 l -18.96,-28.61 c -2.61,-4.08 -9.28,-7.43 -12.61,-4.83 -3.34,1.86 -30.45,22.29 -53.14,22.29 -13.37,0 -23.4,-8.9 -23.4,-18.95 0,-13.74 11.14,-24.14 40.48,-36.03 28.98,-11.52 75.07,-34.17 75.07,-84.7 0,-38.26 -33.07,-76.89 -87.7,-76.89 -48.28,0 -75.02,20.06 -83.55,28.6 -3.73,3.72 -4.85,5.19 -1.87,10.4"
         style="fill:#231f20;fill-opacity:1;fill-rule:nonzero;stroke:none"
         id="path32"
         inkscape:connector-curvature="0" /><path
         d="m 5733.7,2155.09 h -53.12 c -4.1,0 -7.08,3.35 -7.08,7.07 v 40.49 c 0,3.7 2.98,7.06 7.08,7.06 h 164.91 c 4.1,0 7.06,-3.36 7.06,-7.06 v -40.49 c 0,-3.72 -2.96,-7.07 -7.06,-7.07 h -53.1 v -198.37 c 0,-3.73 -3.35,-7.06 -7.08,-7.06 h -44.55 c -3.74,0 -7.06,3.33 -7.06,7.06 v 198.37"
         style="fill:#231f20;fill-opacity:1;fill-rule:nonzero;stroke:none"
         id="path34"
         inkscape:connector-curvature="0" /><path
         d="m 6003.05,2098.63 c 15.23,0 28.24,14.11 28.24,29.72 0,15.59 -13.01,28.24 -28.24,28.24 h -54.98 v -57.96 z m -113.3,104.02 c 0,3.7 2.96,7.06 7.06,7.06 h 111.07 c 44.59,0 80.99,-36.04 80.99,-80.25 0,-34.17 -22.67,-61.66 -54.97,-74.68 l 50.89,-94.36 c 2.58,-4.82 0,-10.76 -6.34,-10.76 h -49.39 c -2.96,0 -5.22,1.85 -5.94,3.33 l -49.41,98.46 h -25.64 v -94.73 c 0,-3.73 -3.33,-7.06 -7.06,-7.06 h -44.2 c -4.1,0 -7.06,3.33 -7.06,7.06 v 245.93"
         style="fill:#231f20;fill-opacity:1;fill-rule:nonzero;stroke:none"
         id="path36"
         inkscape:connector-curvature="0" /><path
         d="m 6138.68,2202.65 c 0,3.7 3.35,7.06 7.06,7.06 h 44.59 c 3.71,0 7.04,-3.36 7.04,-7.06 v -245.93 c 0,-3.73 -3.33,-7.06 -7.04,-7.06 h -44.59 c -3.71,0 -7.06,3.33 -7.06,7.06 v 245.93"
         style="fill:#231f20;fill-opacity:1;fill-rule:nonzero;stroke:none"
         id="path38"
         inkscape:connector-curvature="0" /><path
         d="m 6380.54,2038.81 -28.22,61.3 h -0.37 l -27.89,-61.3 z m -152.67,-79.49 116.26,250.01 c 1.13,2.23 3.72,4.09 6.32,4.09 h 3.72 c 2.6,0 5.21,-1.86 6.31,-4.09 l 116.28,-250.01 c 2.22,-4.83 -0.75,-9.66 -6.32,-9.66 h -41.21 c -6.71,0 -9.68,2.24 -13.01,9.28 l -13.38,29.35 h -101.05 l -13.38,-29.72 c -1.85,-4.45 -5.95,-8.91 -13.37,-8.91 h -40.87 c -5.58,0 -8.56,4.83 -6.3,9.66"
         style="fill:#231f20;fill-opacity:1;fill-rule:nonzero;stroke:none"
         id="path40"
         inkscape:connector-curvature="0" /><path
         d="m 6506.89,2206.73 c 0,3.72 3.35,6.69 7.06,6.69 h 9.3 l 148.2,-142.65 h 0.39 v 131.88 c 0,3.7 2.96,7.06 7.06,7.06 h 44.57 c 3.72,0 7.04,-3.36 7.04,-7.06 v -250.03 c 0,-3.69 -3.32,-6.67 -7.04,-6.67 h -5.95 c -1.09,0 -4.07,1.11 -4.82,1.83 l -146.75,147.51 h -0.37 v -138.57 c 0,-3.73 -2.97,-7.06 -7.06,-7.06 h -44.2 c -3.71,0 -7.06,3.33 -7.06,7.06 l -0.37,250.01"
         style="fill:#231f20;fill-opacity:1;fill-rule:nonzero;stroke:none"
         id="path42"
         inkscape:connector-curvature="0" /><path
         d="m 4818.79,1584.05 -28.23,61.29 h -0.36 l -27.88,-61.29 z m -152.65,-79.5 116.27,250.01 c 1.09,2.22 3.7,4.08 6.31,4.08 h 3.72 c 2.59,0 5.19,-1.86 6.3,-4.08 l 116.27,-250.01 c 2.24,-4.82 -0.72,-9.67 -6.31,-9.67 h -41.21 c -6.71,0 -9.69,2.24 -13.02,9.28 l -13.36,29.36 h -101.05 l -13.39,-29.73 c -1.84,-4.44 -5.94,-8.91 -13.39,-8.91 h -40.84 c -5.58,0 -8.54,4.85 -6.3,9.67"
         style="fill:#231f20;fill-opacity:1;fill-rule:nonzero;stroke:none"
         id="path44"
         inkscape:connector-curvature="0" /><path
         d="m 5058.46,1758.64 c 37.16,0 64.64,-11.51 89.91,-34.53 3.33,-3 3.33,-7.44 0.36,-10.41 l -28.97,-30.1 c -2.61,-2.6 -6.69,-2.6 -9.29,0 -13.75,12.25 -31.95,18.94 -50.14,18.94 -41.99,0 -72.82,-34.91 -72.82,-76.52 0,-41.23 31.21,-75.42 73.19,-75.42 17.47,0 36.39,6.32 49.77,17.86 2.6,2.21 7.44,2.21 9.64,-0.37 l 28.99,-30.85 c 2.6,-2.61 2.21,-7.43 -0.37,-10.03 -25.27,-24.53 -57.18,-36.03 -90.27,-36.03 -74.29,0 -134.1,59.06 -134.1,133.36 0,74.29 59.81,134.1 134.1,134.1"
         style="fill:#231f20;fill-opacity:1;fill-rule:nonzero;stroke:none"
         id="path46"
         inkscape:connector-curvature="0" /><path
         d="m 5312.6,1584.05 -28.23,61.29 h -0.35 l -27.89,-61.29 z m -152.69,-79.5 116.28,250.01 c 1.12,2.22 3.73,4.08 6.3,4.08 h 3.74 c 2.59,0 5.19,-1.86 6.33,-4.08 l 116.27,-250.01 c 2.21,-4.82 -0.77,-9.67 -6.32,-9.67 h -41.24 c -6.68,0 -9.64,2.24 -13.01,9.28 l -13.35,29.36 h -101.06 l -13.39,-29.73 c -1.84,-4.44 -5.92,-8.91 -13.36,-8.91 h -40.88 c -5.55,0 -8.55,4.85 -6.31,9.67"
         style="fill:#231f20;fill-opacity:1;fill-rule:nonzero;stroke:none"
         id="path48"
         inkscape:connector-curvature="0" /><path
         d="m 5532.93,1549.85 c 42,0 72.47,33.08 72.47,75.43 0,41.97 -30.47,75.04 -72.47,75.04 h -35.64 v -150.47 z m -93.61,198.03 c 0,3.7 2.99,7.06 6.69,7.06 h 90.66 c 71.68,0 130.38,-58.34 130.38,-129.66 0,-72.06 -58.7,-130.4 -130.38,-130.4 h -90.66 c -3.7,0 -6.69,3.36 -6.69,7.06 v 245.94"
         style="fill:#231f20;fill-opacity:1;fill-rule:nonzero;stroke:none"
         id="path50"
         inkscape:connector-curvature="0" /><path
         d="m 5712.43,1747.88 c 0,3.7 2.99,7.06 7.06,7.06 h 153.8 c 4.08,0 7.08,-3.36 7.08,-7.06 v -40.49 c 0,-3.73 -3,-7.07 -7.08,-7.07 H 5770.4 v -46.05 h 84.68 c 3.71,0 7.06,-3.37 7.06,-7.06 v -40.49 c 0,-4.1 -3.35,-7.08 -7.06,-7.08 h -84.68 v -50.15 h 102.89 c 4.08,0 7.08,-3.33 7.08,-7.06 v -40.49 c 0,-3.7 -3,-7.06 -7.08,-7.06 h -153.8 c -4.07,0 -7.06,3.36 -7.06,7.06 v 245.94"
         style="fill:#231f20;fill-opacity:1;fill-rule:nonzero;stroke:none"
         id="path52"
         inkscape:connector-curvature="0" /><path
         d="m 5955.79,1752.68 c 0.39,3.37 3.73,5.96 6.69,5.96 h 5.93 c 1.87,0 5.22,-1.49 6.34,-3.7 l 86.17,-160.5 h 0.74 l 86.2,160.5 c 1.12,2.21 4.47,3.7 6.31,3.7 h 5.96 c 2.96,0 6.3,-2.59 6.67,-5.96 l 41.98,-249.63 c 0.73,-4.81 -2.6,-8.17 -7.04,-8.17 h -43.86 c -3.33,0 -6.67,2.97 -7.05,5.95 l -16.71,114.79 h -0.76 l -62.39,-120.37 c -1.12,-2.22 -4.45,-4.07 -6.32,-4.07 h -6.68 c -2.23,0 -5.22,1.85 -6.31,4.07 l -62.82,120.37 h -0.72 l -16.36,-114.79 c -0.35,-2.98 -3.35,-5.95 -7.05,-5.95 h -43.85 c -4.43,0 -7.78,3.36 -7.02,8.17 l 41.95,249.63"
         style="fill:#231f20;fill-opacity:1;fill-rule:nonzero;stroke:none"
         id="path54"
         inkscape:connector-curvature="0" /><path
         d="m 6299.14,1620.07 -82.1,124.07 c -2.99,4.85 0,10.8 5.93,10.8 h 48.29 c 2.97,0 4.83,-1.87 5.95,-3.36 l 51.63,-76.15 51.63,76.15 c 1.14,1.49 2.59,3.36 5.94,3.36 h 48.3 c 5.94,0 8.92,-5.95 5.94,-10.8 l -83.2,-123.7 v -118.5 c 0,-3.7 -3.33,-7.06 -7.05,-7.06 h -44.22 c -4.1,0 -7.04,3.36 -7.04,7.06 v 118.13"
         style="fill:#231f20;fill-opacity:1;fill-rule:nonzero;stroke:none"
         id="path56"
         inkscape:connector-curvature="0" /><path
         d="m 6684.18,1550.6 c 40.84,0 74.28,33.45 74.28,73.94 0,40.85 -33.44,74.66 -74.28,74.66 -40.5,0 -73.96,-33.81 -73.96,-74.66 0,-40.49 33.46,-73.94 73.96,-73.94 z m 0,208.04 c 74.28,0 133.74,-59.81 133.74,-134.1 0,-74.3 -59.46,-133.36 -133.74,-133.36 -74.31,0 -133.37,59.06 -133.37,133.36 0,74.29 59.06,134.1 133.37,134.1"
         style="fill:#231f20;fill-opacity:1;fill-rule:nonzero;stroke:none"
         id="path58"
         inkscape:connector-curvature="0" /><path
         d="m 6862.89,1747.88 c 0,3.7 2.98,7.06 7.08,7.06 h 153.78 c 4.09,0 7.08,-3.36 7.08,-7.06 v -40.49 c 0,-3.73 -2.99,-7.07 -7.08,-7.07 h -102.9 v -53.5 h 84.69 c 3.71,0 7.08,-3.33 7.08,-7.05 v -40.5 c 0,-3.71 -3.37,-7.04 -7.08,-7.04 h -84.69 v -90.29 c 0,-3.7 -3.33,-7.06 -7.08,-7.06 h -43.8 c -4.1,0 -7.08,3.36 -7.08,7.06 v 245.94"
         style="fill:#231f20;fill-opacity:1;fill-rule:nonzero;stroke:none"
         id="path60"
         inkscape:connector-curvature="0" /><path
         d="m 4989.32,1075.27 17.44,30.83 c 2.99,4.83 10.04,4.1 12.63,2.22 1.49,-0.74 28.24,-20.43 52.75,-20.43 14.87,0 25.65,9.29 25.65,22.31 0,15.57 -13.02,27.48 -38.27,37.49 -31.95,12.65 -72.06,37.53 -72.06,82.12 0,36.77 28.58,73.93 85.81,73.93 38.62,0 68.35,-19.69 79.49,-27.88 4.46,-2.59 3.74,-9.28 2.24,-11.89 l -18.95,-28.58 c -2.61,-4.1 -9.3,-7.43 -12.65,-4.84 -3.32,1.87 -30.43,22.29 -53.08,22.29 -13.39,0 -23.44,-8.91 -23.44,-18.94 0,-13.74 11.16,-24.14 40.5,-36.03 28.98,-11.53 75.05,-34.17 75.05,-84.71 0,-38.26 -33.07,-76.9 -87.68,-76.9 -48.28,0 -75.04,20.08 -83.55,28.6 -3.74,3.71 -4.87,5.2 -1.88,10.41"
         style="fill:#231f20;fill-opacity:1;fill-rule:nonzero;stroke:none"
         id="path62"
         inkscape:connector-curvature="0" /><path
         d="m 5322.94,1303.74 c 37.15,0 64.64,-11.52 89.92,-34.55 3.34,-2.96 3.34,-7.43 0.33,-10.39 l -28.95,-30.1 c -2.59,-2.59 -6.7,-2.59 -9.29,0 -13.74,12.26 -31.97,18.94 -50.14,18.94 -41.98,0 -72.83,-34.91 -72.83,-76.53 0,-41.24 31.23,-75.4 73.18,-75.4 17.48,0 36.4,6.31 49.79,17.82 2.59,2.22 7.44,2.22 9.66,-0.37 l 28.97,-30.83 c 2.62,-2.6 2.24,-7.43 -0.39,-10.04 -25.24,-24.5 -57.2,-36.03 -90.25,-36.03 -74.31,0 -134.1,59.06 -134.1,133.36 0,74.31 59.79,134.12 134.1,134.12"
         style="fill:#231f20;fill-opacity:1;fill-rule:nonzero;stroke:none"
         id="path64"
         inkscape:connector-curvature="0" /><path
         d="m 5457.85,1292.96 c 0,3.72 3.33,7.06 7.08,7.06 h 44.57 c 3.71,0 7.04,-3.34 7.04,-7.06 v -245.94 c 0,-3.7 -3.33,-7.04 -7.04,-7.04 h -44.57 c -3.75,0 -7.08,3.34 -7.08,7.04 v 245.94"
         style="fill:#231f20;fill-opacity:1;fill-rule:nonzero;stroke:none"
         id="path66"
         inkscape:connector-curvature="0" /><path
         d="m 5580.46,1292.96 c 0,3.72 2.99,7.06 7.06,7.06 h 153.8 c 4.1,0 7.06,-3.34 7.06,-7.06 v -40.49 c 0,-3.73 -2.96,-7.06 -7.06,-7.06 h -102.89 v -46.06 h 84.69 c 3.71,0 7.06,-3.35 7.06,-7.07 v -40.48 c 0,-4.11 -3.35,-7.06 -7.06,-7.06 h -84.69 v -50.15 h 102.89 c 4.1,0 7.06,-3.35 7.06,-7.06 v -40.51 c 0,-3.7 -2.96,-7.04 -7.06,-7.04 h -153.8 c -4.07,0 -7.06,3.34 -7.06,7.04 v 245.94"
         style="fill:#231f20;fill-opacity:1;fill-rule:nonzero;stroke:none"
         id="path68"
         inkscape:connector-curvature="0" /><path
         d="m 5797.84,1297.03 c 0,3.73 3.34,6.71 7.06,6.71 h 9.27 l 148.24,-142.66 h 0.37 v 131.88 c 0,3.72 2.96,7.06 7.05,7.06 h 44.58 c 3.7,0 7.07,-3.34 7.07,-7.06 v -250 c 0,-3.74 -3.37,-6.7 -7.07,-6.7 h -5.93 c -1.14,0 -4.09,1.11 -4.84,1.85 l -146.76,147.49 h -0.34 v -138.58 c 0,-3.7 -2.99,-7.04 -7.07,-7.04 h -44.21 c -3.71,0 -7.06,3.34 -7.06,7.04 l -0.36,250.01"
         style="fill:#231f20;fill-opacity:1;fill-rule:nonzero;stroke:none"
         id="path70"
         inkscape:connector-curvature="0" /><path
         d="m 6200.58,1303.74 c 37.14,0 64.65,-11.52 89.89,-34.55 3.35,-2.96 3.35,-7.43 0.37,-10.39 l -28.96,-30.1 c -2.61,-2.59 -6.71,-2.59 -9.3,0 -13.72,12.26 -31.94,18.94 -50.15,18.94 -41.98,0 -72.82,-34.91 -72.82,-76.53 0,-41.24 31.22,-75.4 73.19,-75.4 17.49,0 36.4,6.31 49.78,17.82 2.59,2.22 7.45,2.22 9.67,-0.37 l 28.97,-30.83 c 2.6,-2.6 2.23,-7.43 -0.38,-10.04 -25.25,-24.5 -57.2,-36.03 -90.26,-36.03 -74.32,0 -134.11,59.06 -134.11,133.36 0,74.31 59.79,134.12 134.11,134.12"
         style="fill:#231f20;fill-opacity:1;fill-rule:nonzero;stroke:none"
         id="path72"
         inkscape:connector-curvature="0" /><path
         d="m 6335.47,1292.96 c 0,3.72 2.97,7.06 7.06,7.06 h 153.78 c 4.1,0 7.08,-3.34 7.08,-7.06 v -40.49 c 0,-3.73 -2.98,-7.06 -7.08,-7.06 h -102.89 v -46.06 h 84.69 c 3.73,0 7.08,-3.35 7.08,-7.07 v -40.48 c 0,-4.11 -3.35,-7.06 -7.08,-7.06 h -84.69 v -50.15 h 102.89 c 4.1,0 7.08,-3.35 7.08,-7.06 v -40.51 c 0,-3.7 -2.98,-7.04 -7.08,-7.04 h -153.78 c -4.09,0 -7.06,3.34 -7.06,7.04 v 245.94"
         style="fill:#231f20;fill-opacity:1;fill-rule:nonzero;stroke:none"
         id="path74"
         inkscape:connector-curvature="0" /><path
         d="m 6538.34,1075.27 17.48,30.83 c 2.99,4.83 10.01,4.1 12.64,2.22 1.48,-0.74 28.21,-20.43 52.74,-20.43 14.85,0 25.64,9.29 25.64,22.31 0,15.57 -13.02,27.48 -38.28,37.49 -31.93,12.65 -72.06,37.53 -72.06,82.12 0,36.77 28.61,73.93 85.83,73.93 38.61,0 68.33,-19.69 79.49,-27.88 4.47,-2.59 3.71,-9.28 2.22,-11.89 l -18.94,-28.58 c -2.6,-4.1 -9.3,-7.43 -12.62,-4.84 -3.34,1.87 -30.46,22.29 -53.15,22.29 -13.38,0 -23.38,-8.91 -23.38,-18.94 0,-13.74 11.14,-24.14 40.47,-36.03 28.99,-11.53 75.05,-34.17 75.05,-84.71 0,-38.26 -33.06,-76.9 -87.67,-76.9 -48.32,0 -75.03,20.08 -83.59,28.6 -3.71,3.71 -4.83,5.2 -1.87,10.41"
         style="fill:#231f20;fill-opacity:1;fill-rule:nonzero;stroke:none"
         id="path76"
         inkscape:connector-curvature="0" /></g></g></svg>