<?xml version="1.0" encoding="UTF-8" standalone="no"?>
<!-- Created with Inkscape (http://www.inkscape.org/) -->

<svg
   xmlns:dc="http://purl.org/dc/elements/1.1/"
   xmlns:cc="http://creativecommons.org/ns#"
   xmlns:rdf="http://www.w3.org/1999/02/22-rdf-syntax-ns#"
   xmlns:svg="http://www.w3.org/2000/svg"
   xmlns="http://www.w3.org/2000/svg"
   xmlns:sodipodi="http://sodipodi.sourceforge.net/DTD/sodipodi-0.dtd"
   xmlns:inkscape="http://www.inkscape.org/namespaces/inkscape"
   version="1.1"
   id="svg2"
   xml:space="preserve"
   width="1039.0533"
   height="450.23999"
   viewBox="0 0 1039.0533 450.23999"
   sodipodi:docname="OEAW_DE_white.svg"
   inkscape:version="0.92.1 r15371"><metadata
     id="metadata8"><rdf:RDF><cc:Work
         rdf:about=""><dc:format>image/svg+xml</dc:format><dc:type
           rdf:resource="http://purl.org/dc/dcmitype/StillImage" /><dc:title></dc:title></cc:Work></rdf:RDF></metadata><defs
     id="defs6" /><sodipodi:namedview
     pagecolor="#ffffff"
     bordercolor="#666666"
     borderopacity="1"
     objecttolerance="10"
     gridtolerance="10"
     guidetolerance="10"
     inkscape:pageopacity="0"
     inkscape:pageshadow="2"
     inkscape:window-width="933"
     inkscape:window-height="480"
     id="namedview4"
     showgrid="false"
     inkscape:zoom="0.42442479"
     inkscape:cx="519.52667"
     inkscape:cy="225.12"
     inkscape:window-x="0"
     inkscape:window-y="0"
     inkscape:window-maximized="0"
     inkscape:current-layer="g10" /><g
     id="g10"
     inkscape:groupmode="layer"
     inkscape:label="ink_ext_XXXXXX"
     transform="matrix(1.3333333,0,0,-1.3333333,0,450.24)"><g
       id="g12"
       transform="scale(0.1)"><path
         d="M 0,0 H 3896.45 V 259.75 H 0 Z"
         style="fill:#ffffff;fill-opacity:1;fill-rule:nonzero;stroke:none"
         id="path14"
         inkscape:connector-curvature="0" /><path
         d="m 3896.45,3117.05 h 3896.46 v 259.746 H 3896.45 Z"
         style="fill:#ffffff;fill-opacity:1;fill-rule:nonzero;stroke:none"
         id="path16"
         inkscape:connector-curvature="0" /><path
         d="m 831.516,1195.57 c 231.434,0 420.774,190.96 420.774,426.33 0,233.72 -189.34,429.6 -420.774,429.6 -229.778,0 -419.118,-195.88 -419.118,-429.6 0,-235.37 189.34,-426.33 419.118,-426.33 z m 0,1020.52 c 323.684,0 582.584,-265.02 582.584,-594.19 0,-329.19 -258.9,-590.91 -582.584,-590.91 -323.649,0 -580.946,261.72 -580.946,590.91 0,329.17 257.297,594.19 580.946,594.19"
         style="fill:#ffffff;fill-opacity:1;fill-rule:nonzero;stroke:none"
         id="path18"
         inkscape:connector-curvature="0" /><path
         d="m 2112.86,1430.75 -199.06,450.99 h -8.09 l -197.42,-450.99 z m -733.09,-348.96 496.81,1107.76 c 4.85,9.86 19.42,18.11 27.51,18.11 h 16.18 c 8.08,0 22.63,-8.25 27.5,-18.11 l 493.59,-1107.76 c 9.71,-21.4 -3.23,-42.8 -27.52,-42.8 H 2311.9 c -19.41,0 -30.75,9.88 -37.22,24.69 l -100.34,225.51 h -529.18 c -32.36,-75.73 -66.35,-149.81 -98.71,-225.51 -4.84,-11.52 -17.81,-24.69 -37.22,-24.69 h -101.95 c -24.29,0 -37.23,21.4 -27.51,42.8"
         style="fill:#ffffff;fill-opacity:1;fill-rule:nonzero;stroke:none"
         id="path20"
         inkscape:connector-curvature="0" /><path
         d="m 2283.65,2168.15 c -6.49,23.04 6.43,39.49 29.11,39.49 h 108.42 c 12.97,0 25.89,-11.5 29.12,-23.03 l 195.82,-755.52 h 6.47 l 263.78,776.92 c 3.25,9.86 14.58,18.11 27.51,18.11 h 29.13 c 12.95,0 24.29,-8.25 27.52,-18.11 l 267.02,-776.92 h 6.45 l 192.59,755.52 c 3.24,11.53 16.17,23.03 29.13,23.03 h 108.44 c 22.63,0 35.58,-16.45 29.12,-39.49 L 3327.4,1062.03 c -3.21,-13.16 -16.16,-23.04 -29.09,-23.04 h -25.91 c -11.32,0 -24.29,8.23 -27.53,18.11 l -284.81,818.07 h -8.08 L 2672.01,1057.1 c -3.23,-9.88 -16.18,-18.11 -27.5,-18.11 h -25.91 c -12.95,0 -25.89,9.88 -29.11,23.04 l -305.84,1106.12"
         style="fill:#ffffff;fill-opacity:1;fill-rule:nonzero;stroke:none"
         id="path22"
         inkscape:connector-curvature="0" /><path
         d="m 737.926,2384.08 c 0,-21.44 -17.418,-38.82 -38.871,-38.82 H 595.508 c -21.453,0 -38.875,17.38 -38.875,38.82 v 103.6 c 0,21.45 17.422,38.86 38.875,38.86 h 103.547 c 21.453,0 38.871,-17.41 38.871,-38.86 v -103.6"
         style="fill:#ffffff;fill-opacity:1;fill-rule:nonzero;stroke:none"
         id="path24"
         inkscape:connector-curvature="0" /><path
         d="m 1108.04,2384.08 c 0,-21.44 -17.4,-38.82 -38.84,-38.82 H 965.637 c -21.453,0 -38.875,17.38 -38.875,38.82 v 103.6 c 0,21.45 17.422,38.86 38.875,38.86 H 1069.2 c 21.44,0 38.84,-17.41 38.84,-38.86 v -103.6"
         style="fill:#ffffff;fill-opacity:1;fill-rule:nonzero;stroke:none"
         id="path26"
         inkscape:connector-curvature="0" /><path
         d="m 4345.13,2259.37 c 0,14.48 11.54,25.97 26,25.97 14.45,0 26.33,-11.49 26.33,-25.97 0,-14.46 -11.88,-26.34 -26.33,-26.34 -14.46,0 -26,11.88 -26,26.34 z m -22.93,-255.53 c 40.77,0 74.14,33.38 74.14,73.81 0,40.81 -33.37,74.57 -74.14,74.57 -40.51,0 -73.87,-33.76 -73.87,-74.57 0,-40.43 33.36,-73.81 73.87,-73.81 z m -75.34,255.53 c 0,14.48 11.51,25.97 25.99,25.97 14.48,0 26.31,-11.49 26.31,-25.97 0,-14.46 -11.83,-26.34 -26.31,-26.34 -14.48,0 -25.99,11.88 -25.99,26.34 z m 75.34,-47.85 c 74.14,0 133.44,-59.7 133.44,-133.87 0,-74.17 -59.3,-133.14 -133.44,-133.14 -74.24,0 -133.16,58.97 -133.16,133.14 0,74.17 58.92,133.87 133.16,133.87"
         style="fill:#ffffff;fill-opacity:1;fill-rule:nonzero;stroke:none"
         id="path28"
         inkscape:connector-curvature="0" /><path
         d="m 4485.78,1983.45 17.44,30.79 c 2.97,4.82 10,4.06 12.6,2.21 1.48,-0.77 28.2,-20.42 52.62,-20.42 14.86,0 25.62,9.31 25.62,22.27 0,15.59 -12.97,27.45 -38.21,37.46 -31.87,12.6 -71.89,37.47 -71.89,81.98 0,36.69 28.5,73.78 85.61,73.78 38.59,0 68.24,-19.63 79.39,-27.82 4.43,-2.58 3.71,-9.27 2.24,-11.86 l -18.98,-28.56 c -2.55,-4.06 -9.22,-7.42 -12.54,-4.83 -3.31,1.88 -30.45,22.28 -53.08,22.28 -13.34,0 -23.36,-8.91 -23.36,-18.91 0,-13.72 11.14,-24.12 40.43,-36 28.94,-11.49 74.94,-34.1 74.94,-84.53 0,-38.22 -33.02,-76.78 -87.53,-76.78 -48.23,0 -74.92,20.02 -83.44,28.55 -3.68,3.73 -4.83,5.2 -1.86,10.39"
         style="fill:#ffffff;fill-opacity:1;fill-rule:nonzero;stroke:none"
         id="path30"
         inkscape:connector-curvature="0" /><path
         d="m 4737.29,2153.3 h -53.08 c -4.02,0 -7.03,3.36 -7.03,7.05 v 40.42 c 0,3.7 3.01,7.06 7.03,7.06 h 164.69 c 4.04,0 7.05,-3.36 7.05,-7.06 v -40.42 c 0,-3.69 -3.01,-7.05 -7.05,-7.05 h -53.02 v -198.06 c 0,-3.7 -3.33,-7.02 -7.07,-7.02 h -44.5 c -3.71,0 -7.02,3.32 -7.02,7.02 v 198.06"
         style="fill:#ffffff;fill-opacity:1;fill-rule:nonzero;stroke:none"
         id="path32"
         inkscape:connector-curvature="0" /><path
         d="m 4893.08,2200.77 c 0,3.7 2.96,7.06 7.05,7.06 h 153.54 c 4.08,0 7.05,-3.36 7.05,-7.06 v -40.42 c 0,-3.69 -2.97,-7.05 -7.05,-7.05 h -102.72 v -45.98 h 84.53 c 3.7,0 7.04,-3.34 7.04,-7.07 v -40.39 c 0,-4.1 -3.34,-7.05 -7.04,-7.05 h -84.53 v -50.1 h 102.72 c 4.08,0 7.05,-3.29 7.05,-7.02 v -40.45 c 0,-3.7 -2.97,-7.02 -7.05,-7.02 h -153.54 c -4.09,0 -7.05,3.32 -7.05,7.02 v 245.53"
         style="fill:#ffffff;fill-opacity:1;fill-rule:nonzero;stroke:none"
         id="path34"
         inkscape:connector-curvature="0" /><path
         d="m 5223.57,2096.96 c 15.18,0 28.2,14.07 28.2,29.63 0,15.59 -13.02,28.22 -28.2,28.22 h -54.9 v -57.85 z m -113.11,103.81 c 0,3.7 2.95,7.06 7.04,7.06 h 110.87 c 44.52,0 80.85,-35.99 80.85,-80.12 0,-34.11 -22.6,-61.56 -54.89,-74.53 l 50.83,-94.21 c 2.61,-4.81 0,-10.75 -6.34,-10.75 h -49.29 c -2.96,0 -5.22,1.85 -5.92,3.32 l -49.32,98.28 h -25.62 v -94.58 c 0,-3.7 -3.34,-7.02 -7.05,-7.02 h -44.12 c -4.09,0 -7.04,3.32 -7.04,7.02 v 245.53"
         style="fill:#ffffff;fill-opacity:1;fill-rule:nonzero;stroke:none"
         id="path36"
         inkscape:connector-curvature="0" /><path
         d="m 5472.1,2096.96 c 15.21,0 28.18,14.07 28.18,29.63 0,15.59 -12.97,28.22 -28.18,28.22 h -54.89 v -57.85 z m -113.12,103.81 c 0,3.7 2.93,7.06 7.08,7.06 h 110.87 c 44.5,0 80.82,-35.99 80.82,-80.12 0,-34.11 -22.61,-61.56 -54.84,-74.53 l 50.8,-94.21 c 2.57,-4.81 0,-10.75 -6.36,-10.75 h -49.29 c -2.97,0 -5.18,1.85 -5.95,3.32 l -49.31,98.28 h -25.59 v -94.58 c 0,-3.7 -3.33,-7.02 -7.07,-7.02 h -44.08 c -4.15,0 -7.08,3.32 -7.08,7.02 v 245.53"
         style="fill:#ffffff;fill-opacity:1;fill-rule:nonzero;stroke:none"
         id="path38"
         inkscape:connector-curvature="0" /><path
         d="m 5604.56,2200.77 c 0,3.7 2.94,7.06 7.07,7.06 h 153.5 c 4.12,0 7.11,-3.36 7.11,-7.06 v -40.42 c 0,-3.69 -2.99,-7.05 -7.11,-7.05 h -102.72 v -45.98 h 84.58 c 3.68,0 7.04,-3.34 7.04,-7.07 v -40.39 c 0,-4.1 -3.36,-7.05 -7.04,-7.05 h -84.58 v -50.1 h 102.72 c 4.12,0 7.11,-3.29 7.11,-7.02 v -40.45 c 0,-3.7 -2.99,-7.02 -7.11,-7.02 h -153.5 c -4.13,0 -7.07,3.32 -7.07,7.02 v 245.53"
         style="fill:#ffffff;fill-opacity:1;fill-rule:nonzero;stroke:none"
         id="path40"
         inkscape:connector-curvature="0" /><path
         d="m 5821.93,2200.77 c 0,3.7 3.33,7.06 7.04,7.06 h 44.51 c 3.68,0 7.06,-3.36 7.06,-7.06 v -245.53 c 0,-3.7 -3.38,-7.02 -7.06,-7.02 h -44.51 c -3.71,0 -7.04,3.32 -7.04,7.02 v 245.53"
         style="fill:#ffffff;fill-opacity:1;fill-rule:nonzero;stroke:none"
         id="path42"
         inkscape:connector-curvature="0" /><path
         d="m 6059.31,2211.52 c 37.08,0 64.53,-11.49 89.73,-34.47 3.36,-2.99 3.36,-7.42 0.37,-10.38 l -28.92,-30.04 c -2.57,-2.62 -6.66,-2.62 -9.26,0 -13.68,12.24 -31.91,18.9 -50.05,18.9 -41.95,0 -72.69,-34.84 -72.69,-76.42 0,-41.15 31.13,-75.27 73.06,-75.27 17.44,0 36.34,6.33 49.68,17.82 2.6,2.22 7.46,2.22 9.63,-0.37 l 28.94,-30.81 c 2.6,-2.59 2.22,-7.41 -0.39,-10.01 -25.24,-24.46 -57.08,-35.96 -90.1,-35.96 -74.16,0 -133.87,58.97 -133.87,133.14 0,74.17 59.71,133.87 133.87,133.87"
         style="fill:#ffffff;fill-opacity:1;fill-rule:nonzero;stroke:none"
         id="path44"
         inkscape:connector-curvature="0" /><path
         d="m 6193.99,2200.77 c 0,3.7 3.33,7.06 7.02,7.06 h 44.15 c 4.08,0 7.06,-3.36 7.06,-7.06 v -93.45 h 106.07 v 93.45 c 0,3.7 2.96,7.06 7.02,7.06 h 44.13 c 3.71,0 7.06,-3.36 7.06,-7.06 v -245.53 c 0,-3.7 -3.35,-7.02 -7.06,-7.02 h -44.13 c -4.06,0 -7.02,3.32 -7.02,7.02 v 97.57 h -106.07 v -97.57 c 0,-3.7 -2.98,-7.02 -7.06,-7.02 h -44.15 c -3.69,0 -7.02,3.32 -7.02,7.02 v 245.53"
         style="fill:#ffffff;fill-opacity:1;fill-rule:nonzero;stroke:none"
         id="path46"
         inkscape:connector-curvature="0" /><path
         d="m 6480.32,2200.77 c 0,3.7 3.36,7.06 7.1,7.06 h 44.5 c 3.7,0 7.01,-3.36 7.01,-7.06 v -245.53 c 0,-3.7 -3.31,-7.02 -7.01,-7.02 h -44.5 c -3.74,0 -7.1,3.32 -7.1,7.02 v 245.53"
         style="fill:#ffffff;fill-opacity:1;fill-rule:nonzero;stroke:none"
         id="path48"
         inkscape:connector-curvature="0" /><path
         d="m 6587.92,1983.45 17.42,30.79 c 2.97,4.82 10.03,4.06 12.6,2.21 1.51,-0.77 28.18,-20.42 52.69,-20.42 14.81,0 25.61,9.31 25.61,22.27 0,15.59 -12.99,27.45 -38.25,37.46 -31.86,12.6 -71.91,37.47 -71.91,81.98 0,36.69 28.56,73.78 85.64,73.78 38.57,0 68.24,-19.63 79.38,-27.82 4.48,-2.58 3.71,-9.27 2.18,-11.86 l -18.9,-28.56 c -2.59,-4.06 -9.26,-7.42 -12.58,-4.83 -3.33,1.88 -30.39,22.28 -53.04,22.28 -13.34,0 -23.34,-8.91 -23.34,-18.91 0,-13.72 11.08,-24.12 40.38,-36 28.93,-11.49 74.92,-34.1 74.92,-84.53 0,-38.22 -32.96,-76.78 -87.52,-76.78 -48.18,0 -74.88,20.02 -83.46,28.55 -3.66,3.73 -4.8,5.2 -1.82,10.39"
         style="fill:#ffffff;fill-opacity:1;fill-rule:nonzero;stroke:none"
         id="path50"
         inkscape:connector-curvature="0" /><path
         d="m 6920.98,2211.52 c 37.15,0 64.56,-11.49 89.76,-34.47 3.38,-2.99 3.38,-7.42 0.37,-10.38 l -28.91,-30.04 c -2.57,-2.62 -6.71,-2.62 -9.23,0 -13.75,12.24 -31.94,18.9 -50.1,18.9 -41.92,0 -72.73,-34.84 -72.73,-76.42 0,-41.15 31.18,-75.27 73.1,-75.27 17.38,0 36.3,6.33 49.73,17.82 2.52,2.22 7.35,2.22 9.61,-0.37 l 28.9,-30.81 c 2.64,-2.59 2.27,-7.41 -0.37,-10.01 -25.22,-24.46 -57.08,-35.96 -90.13,-35.96 -74.16,0 -133.84,58.97 -133.84,133.14 0,74.17 59.68,133.87 133.84,133.87"
         style="fill:#ffffff;fill-opacity:1;fill-rule:nonzero;stroke:none"
         id="path52"
         inkscape:connector-curvature="0" /><path
         d="m 7055.7,2200.77 c 0,3.7 3.29,7.06 7.03,7.06 h 44.12 c 4.08,0 7.07,-3.36 7.07,-7.06 v -93.45 h 106.04 v 93.45 c 0,3.7 3,7.06 7.07,7.06 h 44.15 c 3.69,0 7.02,-3.36 7.02,-7.06 v -245.53 c 0,-3.7 -3.33,-7.02 -7.02,-7.02 h -44.15 c -4.07,0 -7.07,3.32 -7.07,7.02 v 97.57 h -106.04 v -97.57 c 0,-3.7 -2.99,-7.02 -7.07,-7.02 h -44.12 c -3.74,0 -7.03,3.32 -7.03,7.02 v 245.53"
         style="fill:#ffffff;fill-opacity:1;fill-rule:nonzero;stroke:none"
         id="path54"
         inkscape:connector-curvature="0" /><path
         d="m 7332.75,2200.77 c 0,3.7 2.95,7.06 7.03,7.06 h 153.53 c 4.08,0 7.06,-3.36 7.06,-7.06 v -40.42 c 0,-3.69 -2.98,-7.05 -7.06,-7.05 h -102.75 v -45.98 h 84.59 c 3.71,0 7.05,-3.34 7.05,-7.07 v -40.39 c 0,-4.1 -3.34,-7.05 -7.05,-7.05 h -84.59 v -50.1 h 102.75 c 4.08,0 7.06,-3.29 7.06,-7.02 v -40.45 c 0,-3.7 -2.98,-7.02 -7.06,-7.02 h -153.53 c -4.08,0 -7.03,3.32 -7.03,7.02 v 245.53"
         style="fill:#ffffff;fill-opacity:1;fill-rule:nonzero;stroke:none"
         id="path56"
         inkscape:connector-curvature="0" /><path
         d="m 4645.11,1582.5 -28.2,61.21 h -0.33 l -27.85,-61.21 z m -152.45,-79.39 116.11,249.63 c 1.12,2.2 3.69,4.07 6.28,4.07 h 3.73 c 2.61,0 5.2,-1.87 6.34,-4.07 l 116.05,-249.63 c 2.2,-4.81 -0.75,-9.62 -6.31,-9.62 h -41.16 c -6.71,0 -9.64,2.23 -13,9.29 l -13.36,29.26 h -100.86 l -13.36,-29.63 c -1.84,-4.48 -5.93,-8.92 -13.37,-8.92 h -40.79 c -5.55,0 -8.54,4.81 -6.3,9.62"
         style="fill:#ffffff;fill-opacity:1;fill-rule:nonzero;stroke:none"
         id="path58"
         inkscape:connector-curvature="0" /><path
         d="m 4771.61,1744.19 c 0,4.83 3.7,8.91 8.91,8.91 h 43.38 c 4.85,0 8.91,-4.08 8.91,-8.91 v -97.55 l 82.34,102.74 c 1.49,1.87 4.83,3.72 7.04,3.72 h 46.77 c 7.01,0 10.72,-8.15 6.66,-13.73 l -86.79,-108.65 94.58,-123.14 c 4.07,-5.57 0,-13.74 -7.09,-13.74 h -51.2 c -2.56,0 -5.89,1.51 -6.62,2.59 l -85.69,116.48 v -110.5 c 0,-4.86 -4.06,-8.92 -8.91,-8.92 h -43.38 c -5.21,0 -8.91,4.06 -8.91,8.92 v 241.78"
         style="fill:#ffffff;fill-opacity:1;fill-rule:nonzero;stroke:none"
         id="path60"
         inkscape:connector-curvature="0" /><path
         d="m 5151.38,1582.5 -28.18,61.21 h -0.39 L 5095,1582.5 Z m -152.38,-79.39 116.04,249.63 c 1.15,2.2 3.71,4.07 6.32,4.07 h 3.69 c 2.61,0 5.18,-1.87 6.34,-4.07 l 116.04,-249.63 c 2.22,-4.81 -0.73,-9.62 -6.3,-9.62 h -41.18 c -6.68,0 -9.61,2.23 -12.97,9.29 l -13.28,29.26 h -100.9 l -13.39,-29.63 c -1.82,-4.48 -5.95,-8.92 -13.34,-8.92 h -40.8 c -5.6,0 -8.54,4.81 -6.27,9.62"
         style="fill:#ffffff;fill-opacity:1;fill-rule:nonzero;stroke:none"
         id="path62"
         inkscape:connector-curvature="0" /><path
         d="m 5360.28,1548.37 c 41.91,0 72.33,33.02 72.33,75.3 0,41.89 -30.42,74.91 -72.33,74.91 h -35.57 v -150.21 z m -93.46,197.69 c 0,3.68 2.98,7.04 6.69,7.04 h 90.48 c 71.58,0 130.16,-58.21 130.16,-129.43 0,-71.98 -58.58,-130.18 -130.16,-130.18 h -90.48 c -3.71,0 -6.69,3.34 -6.69,7.03 v 245.54"
         style="fill:#ffffff;fill-opacity:1;fill-rule:nonzero;stroke:none"
         id="path64"
         inkscape:connector-curvature="0" /><path
         d="m 5539.44,1746.06 c 0,3.68 3.01,7.04 7.04,7.04 h 153.59 c 4.09,0 7.02,-3.36 7.02,-7.04 v -40.44 c 0,-3.71 -2.93,-7.04 -7.02,-7.04 h -102.74 v -45.99 h 84.56 c 3.72,0 7.04,-3.36 7.04,-7.06 v -40.4 c 0,-4.1 -3.32,-7.07 -7.04,-7.07 h -84.56 v -50.08 h 102.74 c 4.09,0 7.02,-3.31 7.02,-7.04 v -40.42 c 0,-3.69 -2.93,-7.03 -7.02,-7.03 h -153.59 c -4.03,0 -7.04,3.34 -7.04,7.03 v 245.54"
         style="fill:#ffffff;fill-opacity:1;fill-rule:nonzero;stroke:none"
         id="path66"
         inkscape:connector-curvature="0" /><path
         d="m 5782.4,1750.86 c 0.39,3.36 3.77,5.95 6.71,5.95 h 5.94 c 1.83,0 5.21,-1.49 6.3,-3.71 l 86.07,-160.22 h 0.75 l 86,160.22 c 1.14,2.22 4.46,3.71 6.31,3.71 h 5.94 c 2.96,0 6.31,-2.59 6.67,-5.95 L 6035,1501.63 c 0.72,-4.8 -2.61,-8.14 -7.05,-8.14 h -43.76 c -3.36,0 -6.7,2.94 -7.08,5.95 l -16.68,114.58 h -0.68 l -62.34,-120.18 c -1.13,-2.22 -4.46,-4.07 -6.28,-4.07 h -6.71 c -2.25,0 -5.24,1.85 -6.32,4.07 l -62.68,120.18 h -0.73 l -16.32,-114.58 c -0.36,-3.01 -3.32,-5.95 -7.05,-5.95 h -43.78 c -4.41,0 -7.79,3.34 -7.04,8.14 l 41.9,249.23"
         style="fill:#ffffff;fill-opacity:1;fill-rule:nonzero;stroke:none"
         id="path68"
         inkscape:connector-curvature="0" /><path
         d="m 6082.55,1746.06 c 0,3.68 3.29,7.04 7.03,7.04 h 44.46 c 3.75,0 7.04,-3.36 7.04,-7.04 v -245.54 c 0,-3.69 -3.29,-7.03 -7.04,-7.03 h -44.46 c -3.74,0 -7.03,3.34 -7.03,7.03 v 245.54"
         style="fill:#ffffff;fill-opacity:1;fill-rule:nonzero;stroke:none"
         id="path70"
         inkscape:connector-curvature="0" /><path
         d="m 6204.95,1746.06 c 0,3.68 2.96,7.04 7.04,7.04 h 153.52 c 4.09,0 7.07,-3.36 7.07,-7.04 v -40.44 c 0,-3.71 -2.98,-7.04 -7.07,-7.04 h -102.65 v -45.99 h 84.51 c 3.69,0 7.04,-3.36 7.04,-7.06 v -40.4 c 0,-4.1 -3.35,-7.07 -7.04,-7.07 h -84.51 v -50.08 h 102.65 c 4.09,0 7.07,-3.31 7.07,-7.04 v -40.42 c 0,-3.69 -2.98,-7.03 -7.07,-7.03 h -153.52 c -4.08,0 -7.04,3.34 -7.04,7.03 v 245.54"
         style="fill:#ffffff;fill-opacity:1;fill-rule:nonzero;stroke:none"
         id="path72"
         inkscape:connector-curvature="0" /><path
         d="m 6597.72,1548.37 c 41.91,0 72.35,33.02 72.35,75.3 0,41.89 -30.44,74.91 -72.35,74.91 h -35.62 v -150.21 z m -93.44,197.69 c 0,3.68 2.94,7.04 6.69,7.04 h 90.53 c 71.53,0 130.13,-58.21 130.13,-129.43 0,-71.98 -58.6,-130.18 -130.13,-130.18 h -90.53 c -3.75,0 -6.69,3.34 -6.69,7.03 v 245.54"
         style="fill:#ffffff;fill-opacity:1;fill-rule:nonzero;stroke:none"
         id="path74"
         inkscape:connector-curvature="0" /><path
         d="m 6776.9,1746.06 c 0,3.68 2.99,7.04 7.06,7.04 h 153.55 c 4.09,0 7.05,-3.36 7.05,-7.04 v -40.44 c 0,-3.71 -2.96,-7.04 -7.05,-7.04 h -102.75 v -45.99 h 84.58 c 3.68,0 7.04,-3.36 7.04,-7.06 v -40.4 c 0,-4.1 -3.36,-7.07 -7.04,-7.07 h -84.58 v -50.08 h 102.75 c 4.09,0 7.05,-3.31 7.05,-7.04 v -40.42 c 0,-3.69 -2.96,-7.03 -7.05,-7.03 h -153.55 c -4.07,0 -7.06,3.34 -7.06,7.03 v 245.54"
         style="fill:#ffffff;fill-opacity:1;fill-rule:nonzero;stroke:none"
         id="path76"
         inkscape:connector-curvature="0" /><path
         d="m 7107.44,1642.21 c 15.2,0 28.17,14.07 28.17,29.67 0,15.54 -12.97,28.18 -28.17,28.18 h -54.91 v -57.85 z m -113.15,103.85 c 0,3.68 3,7.04 7.08,7.04 h 110.89 c 44.5,0 80.87,-35.97 80.87,-80.14 0,-34.08 -22.69,-61.54 -54.92,-74.53 l 50.82,-94.18 c 2.59,-4.81 0,-10.76 -6.3,-10.76 h -49.34 c -2.97,0 -5.21,1.86 -5.93,3.34 l -49.32,98.27 h -25.61 v -94.58 c 0,-3.69 -3.34,-7.03 -7.03,-7.03 h -44.13 c -4.08,0 -7.08,3.34 -7.08,7.03 v 245.54"
         style="fill:#ffffff;fill-opacity:1;fill-rule:nonzero;stroke:none"
         id="path78"
         inkscape:connector-curvature="0" /><path
         d="m 4236.15,1289.47 c -1.49,5.2 1.47,8.93 6.63,8.93 h 43.45 c 2.93,0 5.87,-2.63 6.68,-5.2 l 31.87,-125.75 h 1.48 l 57.48,130.58 c 1.09,2.19 3.34,4.08 6.31,4.08 h 6.68 c 3.32,0 5.59,-1.89 6.29,-4.08 l 57.48,-130.58 h 1.51 l 31.86,125.75 c 0.77,2.57 3.71,5.2 6.67,5.2 h 43.38 c 5.25,0 8.22,-3.73 6.72,-8.93 l -70.08,-249.23 c -0.75,-2.96 -3.73,-5.18 -6.66,-5.18 h -5.98 c -2.59,0 -5.19,1.85 -6.26,4.06 l -67.88,151.7 h -1.13 l -67.54,-151.7 c -1.09,-2.21 -3.65,-4.06 -6.27,-4.06 h -5.92 c -3,0 -5.91,2.22 -6.66,5.18 l -70.11,249.23"
         style="fill:#ffffff;fill-opacity:1;fill-rule:nonzero;stroke:none"
         id="path80"
         inkscape:connector-curvature="0" /><path
         d="m 4590.41,1291.34 c 0,3.7 3.3,7.06 7.01,7.06 h 44.53 c 3.73,0 7.03,-3.36 7.03,-7.06 v -245.53 c 0,-3.73 -3.3,-7.02 -7.03,-7.02 h -44.53 c -3.71,0 -7.01,3.29 -7.01,7.02 v 245.53"
         style="fill:#ffffff;fill-opacity:1;fill-rule:nonzero;stroke:none"
         id="path82"
         inkscape:connector-curvature="0" /><path
         d="m 4697.96,1074 17.43,30.81 c 2.96,4.8 9.99,4.06 12.62,2.21 1.45,-0.77 28.18,-20.43 52.67,-20.43 14.82,0 25.58,9.28 25.58,22.28 0,15.58 -13,27.45 -38.2,37.43 -31.89,12.64 -71.95,37.46 -71.95,81.99 0,36.71 28.49,73.82 85.68,73.82 38.54,0 68.25,-19.7 79.36,-27.83 4.48,-2.61 3.71,-9.28 2.21,-11.86 l -18.89,-28.56 c -2.64,-4.07 -9.3,-7.44 -12.62,-4.84 -3.36,1.88 -30.41,22.27 -53.05,22.27 -13.38,0 -23.38,-8.91 -23.38,-18.91 0,-13.74 11.15,-24.12 40.41,-36 28.97,-11.47 74.93,-34.1 74.93,-84.55 0,-38.2 -32.98,-76.77 -87.5,-76.77 -48.21,0 -74.92,20.02 -83.45,28.56 -3.7,3.73 -4.83,5.2 -1.85,10.38"
         style="fill:#ffffff;fill-opacity:1;fill-rule:nonzero;stroke:none"
         id="path84"
         inkscape:connector-curvature="0" /><path
         d="m 4901.25,1074 17.4,30.81 c 3.01,4.8 10.03,4.06 12.6,2.21 1.51,-0.77 28.22,-20.43 52.68,-20.43 14.85,0 25.59,9.28 25.59,22.28 0,15.58 -12.95,27.45 -38.21,37.43 -31.88,12.64 -71.9,37.46 -71.9,81.99 0,36.71 28.51,73.82 85.61,73.82 38.61,0 68.28,-19.7 79.43,-27.83 4.41,-2.61 3.69,-9.28 2.2,-11.86 l -18.92,-28.56 c -2.57,-4.07 -9.27,-7.44 -12.6,-4.84 -3.34,1.88 -30.4,22.27 -53.06,22.27 -13.32,0 -23.33,-8.91 -23.33,-18.91 0,-13.74 11.11,-24.12 40.4,-36 28.9,-11.47 74.95,-34.1 74.95,-84.55 0,-38.2 -33.03,-76.77 -87.55,-76.77 -48.21,0 -74.91,20.02 -83.44,28.56 -3.69,3.73 -4.84,5.2 -1.85,10.38"
         style="fill:#ffffff;fill-opacity:1;fill-rule:nonzero;stroke:none"
         id="path86"
         inkscape:connector-curvature="0" /><path
         d="m 5119.35,1291.34 c 0,3.7 2.97,7.06 7.02,7.06 h 153.58 c 4.06,0 7.05,-3.36 7.05,-7.06 v -40.43 c 0,-3.73 -2.99,-7.04 -7.05,-7.04 h -102.73 v -45.98 h 84.55 c 3.74,0 7.03,-3.35 7.03,-7.07 v -40.41 c 0,-4.11 -3.29,-7.07 -7.03,-7.07 h -84.55 v -50.08 h 102.73 c 4.06,0 7.05,-3.31 7.05,-7.02 v -40.43 c 0,-3.73 -2.99,-7.02 -7.05,-7.02 h -153.58 c -4.05,0 -7.02,3.29 -7.02,7.02 v 245.53"
         style="fill:#ffffff;fill-opacity:1;fill-rule:nonzero;stroke:none"
         id="path88"
         inkscape:connector-curvature="0" /><path
         d="m 5336.37,1295.41 c 0,3.72 3.33,6.7 7,6.7 h 9.28 l 148,-142.42 h 0.37 v 131.65 c 0,3.7 2.97,7.06 7.02,7.06 h 44.51 c 3.7,0 7.06,-3.36 7.06,-7.06 v -249.63 c 0,-3.68 -3.36,-6.65 -7.06,-6.65 h -5.9 c -1.12,0 -4.09,1.12 -4.86,1.85 l -146.5,147.22 h -0.37 v -138.32 c 0,-3.73 -2.94,-7.02 -7.02,-7.02 h -44.14 c -3.69,0 -7.04,3.29 -7.04,7.02 l -0.35,249.6"
         style="fill:#ffffff;fill-opacity:1;fill-rule:nonzero;stroke:none"
         id="path90"
         inkscape:connector-curvature="0" /><path
         d="m 5608.64,1074 17.43,30.81 c 2.96,4.8 9.98,4.06 12.59,2.21 1.5,-0.77 28.2,-20.43 52.67,-20.43 14.86,0 25.61,9.28 25.61,22.28 0,15.58 -12.97,27.45 -38.22,37.43 -31.87,12.64 -71.94,37.46 -71.94,81.99 0,36.71 28.55,73.82 85.65,73.82 38.57,0 68.3,-19.7 79.39,-27.83 4.46,-2.61 3.71,-9.28 2.24,-11.86 l -18.94,-28.56 c -2.61,-4.07 -9.24,-7.44 -12.62,-4.84 -3.29,1.88 -30.42,22.27 -53.01,22.27 -13.36,0 -23.39,-8.91 -23.39,-18.91 0,-13.74 11.17,-24.12 40.42,-36 28.96,-11.47 74.96,-34.1 74.96,-84.55 0,-38.2 -33.01,-76.77 -87.56,-76.77 -48.23,0 -74.89,20.02 -83.44,28.56 -3.7,3.73 -4.82,5.2 -1.84,10.38"
         style="fill:#ffffff;fill-opacity:1;fill-rule:nonzero;stroke:none"
         id="path92"
         inkscape:connector-curvature="0" /><path
         d="m 5941.72,1302.11 c 37.09,0 64.54,-11.5 89.78,-34.52 3.32,-2.96 3.32,-7.42 0.31,-10.36 l -28.9,-30.06 c -2.62,-2.59 -6.7,-2.59 -9.29,0 -13.69,12.25 -31.89,18.92 -50.05,18.92 -41.9,0 -72.71,-34.86 -72.71,-76.4 0,-41.16 31.21,-75.28 73.05,-75.28 17.47,0 36.39,6.3 49.71,17.82 2.59,2.22 7.44,2.22 9.64,-0.4 l 28.94,-30.77 c 2.62,-2.59 2.22,-7.43 -0.39,-10.03 -25.19,-24.48 -57.11,-35.97 -90.09,-35.97 -74.19,0 -133.9,58.97 -133.9,133.15 0,74.17 59.71,133.9 133.9,133.9"
         style="fill:#ffffff;fill-opacity:1;fill-rule:nonzero;stroke:none"
         id="path94"
         inkscape:connector-curvature="0" /><path
         d="m 6076.35,1291.34 c 0,3.7 3.39,7.06 7.05,7.06 h 44.11 c 4.09,0 7.05,-3.36 7.05,-7.06 v -93.45 h 106.1 v 93.45 c 0,3.7 2.96,7.06 7.06,7.06 h 44.13 c 3.69,0 7.03,-3.36 7.03,-7.06 v -245.53 c 0,-3.73 -3.34,-7.02 -7.03,-7.02 h -44.13 c -4.1,0 -7.06,3.29 -7.06,7.02 v 97.53 h -106.1 v -97.53 c 0,-3.73 -2.96,-7.02 -7.05,-7.02 h -44.11 c -3.66,0 -7.05,3.29 -7.05,7.02 v 245.53"
         style="fill:#ffffff;fill-opacity:1;fill-rule:nonzero;stroke:none"
         id="path96"
         inkscape:connector-curvature="0" /><path
         d="m 6481.79,1127.79 -28.18,61.18 h -0.36 l -27.81,-61.18 z m -152.41,-79.39 116.06,249.63 c 1.16,2.19 3.72,4.08 6.31,4.08 h 3.73 c 2.56,0 5.18,-1.89 6.29,-4.08 l 116.1,-249.63 c 2.21,-4.77 -0.76,-9.61 -6.32,-9.61 h -41.15 c -6.72,0 -9.63,2.22 -12.99,9.24 l -13.36,29.3 h -100.84 l -13.41,-29.65 c -1.82,-4.44 -5.91,-8.89 -13.32,-8.89 h -40.84 c -5.54,0 -8.48,4.84 -6.26,9.61"
         style="fill:#ffffff;fill-opacity:1;fill-rule:nonzero;stroke:none"
         id="path98"
         inkscape:connector-curvature="0" /><path
         d="m 6608.31,1291.34 c 0,3.7 2.95,7.06 7.06,7.06 h 153.58 c 4.05,0 7.01,-3.36 7.01,-7.06 v -40.43 c 0,-3.73 -2.96,-7.04 -7.01,-7.04 h -102.8 v -53.42 h 84.56 c 3.75,0 7.08,-3.33 7.08,-7.02 v -40.46 c 0,-3.69 -3.33,-7.02 -7.08,-7.02 h -84.56 v -90.14 c 0,-3.73 -3.31,-7.02 -7.06,-7.02 h -43.72 c -4.11,0 -7.06,3.29 -7.06,7.02 v 245.53"
         style="fill:#ffffff;fill-opacity:1;fill-rule:nonzero;stroke:none"
         id="path100"
         inkscape:connector-curvature="0" /><path
         d="m 6861.85,1243.87 h -53.05 c -4.06,0 -7.04,3.31 -7.04,7.04 v 40.43 c 0,3.7 2.98,7.06 7.04,7.06 h 164.66 c 4.1,0 7.06,-3.36 7.06,-7.06 v -40.43 c 0,-3.73 -2.96,-7.04 -7.06,-7.04 h -53 v -198.06 c 0,-3.73 -3.36,-7.02 -7.09,-7.02 h -44.43 c -3.75,0 -7.09,3.29 -7.09,7.02 v 198.06"
         style="fill:#ffffff;fill-opacity:1;fill-rule:nonzero;stroke:none"
         id="path102"
         inkscape:connector-curvature="0" /><path
         d="m 7013.34,1291.34 c 0,3.7 3.03,7.06 7.08,7.06 h 153.54 c 4.05,0 7.04,-3.36 7.04,-7.06 v -40.43 c 0,-3.73 -2.99,-7.04 -7.04,-7.04 h -102.75 v -45.98 h 84.54 c 3.72,0 7.11,-3.35 7.11,-7.07 v -40.41 c 0,-4.11 -3.39,-7.07 -7.11,-7.07 h -84.54 v -50.08 h 102.75 c 4.05,0 7.04,-3.31 7.04,-7.02 v -40.43 c 0,-3.73 -2.99,-7.02 -7.04,-7.02 h -153.54 c -4.05,0 -7.08,3.29 -7.08,7.02 v 245.53"
         style="fill:#ffffff;fill-opacity:1;fill-rule:nonzero;stroke:none"
         id="path104"
         inkscape:connector-curvature="0" /><path
         d="m 7230.37,1295.41 c 0,3.72 3.31,6.7 7.08,6.7 h 9.25 l 147.98,-142.42 h 0.35 v 131.65 c 0,3.7 2.99,7.06 7.05,7.06 h 44.48 c 3.75,0 7.05,-3.36 7.05,-7.06 v -249.63 c 0,-3.68 -3.3,-6.65 -7.05,-6.65 h -5.88 c -1.14,0 -4.08,1.12 -4.85,1.85 l -146.51,147.22 H 7289 v -138.32 c 0,-3.73 -3.01,-7.02 -7.07,-7.02 h -44.15 c -3.73,0 -7.05,3.29 -7.05,7.02 l -0.36,249.6"
         style="fill:#ffffff;fill-opacity:1;fill-rule:nonzero;stroke:none"
         id="path106"
         inkscape:connector-curvature="0" /></g></g></svg>