<?xml version="1.0" encoding="UTF-8" standalone="no"?>
<!-- Created with Inkscape (http://www.inkscape.org/) -->

<svg
   xmlns:dc="http://purl.org/dc/elements/1.1/"
   xmlns:cc="http://creativecommons.org/ns#"
   xmlns:rdf="http://www.w3.org/1999/02/22-rdf-syntax-ns#"
   xmlns:svg="http://www.w3.org/2000/svg"
   xmlns="http://www.w3.org/2000/svg"
   xmlns:sodipodi="http://sodipodi.sourceforge.net/DTD/sodipodi-0.dtd"
   xmlns:inkscape="http://www.inkscape.org/namespaces/inkscape"
   version="1.1"
   id="svg2"
   xml:space="preserve"
   width="518.22668"
   height="448.93332"
   viewBox="0 0 518.22668 448.93332"
   sodipodi:docname="OEAW_short_black.svg"
   inkscape:version="0.92.1 r15371"><metadata
     id="metadata8"><rdf:RDF><cc:Work
         rdf:about=""><dc:format>image/svg+xml</dc:format><dc:type
           rdf:resource="http://purl.org/dc/dcmitype/StillImage" /><dc:title></dc:title></cc:Work></rdf:RDF></metadata><defs
     id="defs6" /><sodipodi:namedview
     pagecolor="#ffffff"
     bordercolor="#666666"
     borderopacity="1"
     objecttolerance="10"
     gridtolerance="10"
     guidetolerance="10"
     inkscape:pageopacity="0"
     inkscape:pageshadow="2"
     inkscape:window-width="933"
     inkscape:window-height="480"
     id="namedview4"
     showgrid="false"
     inkscape:zoom="0.52569054"
     inkscape:cx="259.11334"
     inkscape:cy="224.46666"
     inkscape:window-x="0"
     inkscape:window-y="0"
     inkscape:window-maximized="0"
     inkscape:current-layer="g10" /><g
     id="g10"
     inkscape:groupmode="layer"
     inkscape:label="ink_ext_XXXXXX"
     transform="matrix(1.3333333,0,0,-1.3333333,0,448.93333)"><g
       id="g12"
       transform="scale(0.1)"><path
         d="M 0,0 H 1942.93 V 259.039 H 0 Z"
         style="fill:#231f20;fill-opacity:1;fill-rule:nonzero;stroke:none"
         id="path14"
         inkscape:connector-curvature="0" /><path
         d="m 1943.82,3107.96 h 1942.93 v 259.043 H 1943.82 Z"
         style="fill:#231f20;fill-opacity:1;fill-rule:nonzero;stroke:none"
         id="path16"
         inkscape:connector-curvature="0" /><path
         d="m 829.262,1192.3 c 230.808,0 419.638,190.43 419.638,425.18 0,233.09 -188.83,428.44 -419.638,428.44 -229.157,0 -417.985,-195.35 -417.985,-428.44 0,-234.75 188.828,-425.18 417.985,-425.18 z m 0,1017.77 c 322.808,0 581.008,-264.3 581.008,-592.59 0,-328.3 -258.2,-589.32 -581.008,-589.32 -322.774,0 -579.367,261.02 -579.367,589.32 0,328.29 256.593,592.59 579.367,592.59"
         style="fill:#231f20;fill-opacity:1;fill-rule:nonzero;stroke:none"
         id="path18"
         inkscape:connector-curvature="0" /><path
         d="m 2107.13,1426.81 -198.51,449.8 h -8.08 l -196.88,-449.8 z m -731.1,-348 495.46,1104.75 c 4.84,9.86 19.37,18.07 27.45,18.07 h 16.13 c 8.06,0 22.57,-8.21 27.43,-18.07 l 492.25,-1104.75 c 9.67,-21.31 -3.23,-42.64 -27.45,-42.64 h -101.66 c -19.36,0 -30.67,9.84 -37.12,24.61 l -100.07,224.88 H 1640.7 c -32.27,-75.51 -66.16,-149.37 -98.44,-224.88 -4.83,-11.49 -17.76,-24.61 -37.11,-24.61 h -101.68 c -24.23,0 -37.13,21.33 -27.44,42.64"
         style="fill:#231f20;fill-opacity:1;fill-rule:nonzero;stroke:none"
         id="path20"
         inkscape:connector-curvature="0" /><path
         d="m 2277.46,2162.22 c -6.46,23.02 6.42,39.41 29.03,39.41 h 108.13 c 12.94,0 25.82,-11.5 29.04,-22.96 l 195.3,-753.46 h 6.44 l 263.07,774.78 c 3.25,9.84 14.54,18.05 27.44,18.05 h 29.05 c 12.91,0 24.22,-8.21 27.44,-18.05 l 266.29,-774.78 h 6.44 l 192.06,753.46 c 3.23,11.46 16.13,22.96 29.05,22.96 h 108.14 c 22.58,0 35.5,-16.39 29.06,-39.41 L 3318.39,1059.14 c -3.2,-13.13 -16.11,-22.97 -29.01,-22.97 h -25.84 c -11.29,0 -24.23,8.2 -27.47,18.05 l -284.03,815.83 h -8.06 l -279.21,-815.83 c -3.22,-9.85 -16.14,-18.05 -27.43,-18.05 h -25.83 c -12.92,0 -25.82,9.84 -29.03,22.97 l -305.02,1103.08"
         style="fill:#231f20;fill-opacity:1;fill-rule:nonzero;stroke:none"
         id="path22"
         inkscape:connector-curvature="0" /><path
         d="m 735.93,2377.61 c 0,-21.42 -17.375,-38.74 -38.774,-38.74 H 593.891 c -21.391,0 -38.762,17.32 -38.762,38.74 v 103.3 c 0,21.4 17.371,38.73 38.762,38.73 h 103.265 c 21.399,0 38.774,-17.33 38.774,-38.73 v -103.3"
         style="fill:#231f20;fill-opacity:1;fill-rule:nonzero;stroke:none"
         id="path24"
         inkscape:connector-curvature="0" /><path
         d="m 1105.04,2377.61 c 0,-21.42 -17.35,-38.74 -38.73,-38.74 H 963.023 c -21.398,0 -38.769,17.32 -38.769,38.74 v 103.3 c 0,21.4 17.371,38.73 38.769,38.73 h 103.287 c 21.38,0 38.73,-17.33 38.73,-38.73 v -103.3"
         style="fill:#231f20;fill-opacity:1;fill-rule:nonzero;stroke:none"
         id="path26"
         inkscape:connector-curvature="0" /></g></g></svg>